<svg width="128" height="128" viewBox="0 0 128 128" fill="none" xmlns="http://www.w3.org/2000/svg">
<path d="M73.76 89.0802H54.23V108.41C54.23 113.26 58.21 117.19 63.11 117.19H64.88C69.78 117.19 73.76 113.26 73.76 108.41V89.0802ZM91.33 50.4102H36.67C30.78 50.4102 25.96 55.5502 25.96 61.8202C25.96 68.1002 30.78 73.2302 36.67 73.2302H91.32C97.21 73.2302 102.03 68.0902 102.03 61.8202C102.04 55.5502 97.22 50.4102 91.33 50.4102Z" fill="#7A4C32"/>
<path d="M64 11.0498C46.6 11.0498 30.48 29.6598 30.48 56.4398C30.48 83.0798 47.09 96.2498 64 96.2498C80.91 96.2498 97.52 83.0798 97.52 56.4398C97.52 29.6598 81.4 11.0498 64 11.0498Z" fill="#A56C43"/>
<path d="M47.5599 63.8899C50.2826 63.8899 52.4899 61.6066 52.4899 58.7899C52.4899 55.9733 50.2826 53.6899 47.5599 53.6899C44.8371 53.6899 42.6299 55.9733 42.6299 58.7899C42.6299 61.6066 44.8371 63.8899 47.5599 63.8899Z" fill="#42312C"/>
<path d="M80.4398 63.8899C83.1625 63.8899 85.3698 61.6066 85.3698 58.7899C85.3698 55.9733 83.1625 53.6899 80.4398 53.6899C77.717 53.6899 75.5098 55.9733 75.5098 58.7899C75.5098 61.6066 77.717 63.8899 80.4398 63.8899Z" fill="#42312C"/>
<path d="M67.8601 68.04C67.7501 68 67.6501 67.97 67.5401 67.96H60.4701C60.3601 67.97 60.2501 68 60.1501 68.04C59.5101 68.3 59.1601 68.96 59.4601 69.67C59.7601 70.38 61.1701 72.36 64.0101 72.36C66.8501 72.36 68.2601 70.37 68.5601 69.67C68.8501 68.96 68.5001 68.3 67.8601 68.04Z" fill="#875334"/>
<path d="M72.4199 76.1201C69.2299 78.0101 58.7899 78.0101 55.6099 76.1201C53.7799 75.0301 51.9099 76.7001 52.6699 78.3601C53.4199 79.9901 59.1199 83.7801 64.0399 83.7801C68.9599 83.7801 74.5899 79.9901 75.3399 78.3601C76.0899 76.7001 74.2499 75.0301 72.4199 76.1201Z" fill="#473530"/>
<path d="M64.02 5.02979H63.98C18.54 5.26979 27.85 55.1698 27.85 55.1698C27.85 55.1698 29.89 60.5198 30.82 62.8798C30.95 63.2198 31.45 63.1798 31.53 62.8298C32.5 58.4898 35.99 43.0998 37.75 38.4198C38.2529 37.0864 39.2085 35.9722 40.4497 35.272C41.6909 34.5719 43.1388 34.3304 44.54 34.5898C49 35.3998 56.09 36.3998 63.92 36.3998H64.08C71.9 36.3998 79 35.3998 83.45 34.5898C86.35 34.0598 89.21 35.6698 90.24 38.4198C91.99 43.0798 95.46 58.3798 96.44 62.7798C96.5201 63.1398 97.0201 63.1698 97.15 62.8298L100.13 55.1598C100.15 55.1698 109.45 5.26979 64.02 5.02979Z" fill="#1A54C2"/>
<path d="M100.15 55.1698C100.15 55.1698 109.46 5.26979 64.02 5.02979H63.98C63.27 5.02979 62.58 5.04978 61.9 5.07978C60.55 5.13978 59.24 5.23978 57.98 5.38978H57.94C57.85 5.39978 57.77 5.41978 57.68 5.42978C19.43 10.2398 27.84 55.1698 27.84 55.1698L30.82 62.8498C30.95 63.1898 31.44 63.1598 31.52 62.7998C32.5 58.4098 35.98 43.0898 37.74 38.4298C38.2439 37.095 39.2012 35.9799 40.4443 35.2797C41.6875 34.5796 43.1373 34.3389 44.54 34.5998C49 35.3998 56.09 36.3998 63.92 36.3998H64.08C71.9 36.3998 79 35.3998 83.45 34.5898C86.35 34.0598 89.21 35.6698 90.24 38.4198C92 43.0998 95.49 58.5198 96.45 62.8398C96.53 63.1998 97.02 63.2298 97.15 62.8898C98.09 60.5398 100.15 55.1698 100.15 55.1698Z" fill="url(#paint0_radial_549_2453)"/>
<path d="M40.01 50.7201C43 46.4901 49.79 46.0901 53.68 49.2401C54.3 49.7401 55.12 50.4401 55.36 51.2201C55.76 52.4901 54.54 53.4801 53.35 53.1801C52.59 52.9901 51.88 52.5801 51.13 52.3501C49.76 51.9201 48.77 51.8001 47.54 51.8001C45.72 51.7901 44.55 52.0201 42.82 52.7201C42.11 53.0101 41.53 53.4701 40.72 53.1301C39.79 52.7401 39.45 51.5601 40.01 50.7201ZM86.07 53.1201C85.78 52.9901 85.5 52.8301 85.21 52.7101C83.43 51.9701 82.42 51.7801 80.49 51.7901C78.79 51.8001 77.78 52.0301 76.45 52.4801C75.64 52.7601 74.61 53.4601 73.71 53.1901C72.39 52.7901 72.43 51.3501 73.15 50.4301C74.01 49.3501 75.19 48.5301 76.44 47.9901C79.34 46.7301 82.88 46.9101 85.61 48.5401C86.5 49.0701 87.47 49.8001 88.01 50.7201C88.79 52.0301 87.61 53.7501 86.07 53.1201Z" fill="#42312C"/>
<path d="M116.5 54.2798C115.26 54.2798 114.25 55.2398 114.25 56.4198V65.6198C114.25 66.7998 115.26 67.7598 116.5 67.7598C117.74 67.7598 118.75 66.7998 118.75 65.6198V56.4198C118.75 55.2398 117.74 54.2798 116.5 54.2798ZM112 54.2798C110.76 54.2798 109.75 55.2398 109.75 56.4198V65.6198C109.75 66.7998 110.76 67.7598 112 67.7598C113.24 67.7598 114.25 66.7998 114.25 65.6198V56.4198C114.25 55.2398 113.24 54.2798 112 54.2798Z" fill="#DBCA16"/>
<path d="M114.25 54.2798C113.01 54.2798 112 55.2398 112 56.4198V67.6098C112 68.7898 113.01 69.7498 114.25 69.7498C115.49 69.7498 116.5 68.7898 116.5 67.6098V56.4198C116.5 55.2398 115.49 54.2798 114.25 54.2798Z" fill="#DBCA16"/>
<path d="M114.25 55.6799C115.774 55.6799 117.01 54.5024 117.01 53.0499C117.01 51.5974 115.774 50.4199 114.25 50.4199C112.726 50.4199 111.49 51.5974 111.49 53.0499C111.49 54.5024 112.726 55.6799 114.25 55.6799Z" fill="#DBCA16"/>
<path d="M114.25 53.02C113.7 53.02 113.25 52.57 113.25 52.02V14.02C113.25 13.47 113.7 13.02 114.25 13.02C114.8 13.02 115.25 13.47 115.25 14.02V52.02C115.25 52.58 114.8 53.02 114.25 53.02Z" fill="#504F4F"/>
<path d="M116 12.98C85.17 5.22998 64 4.97998 64 4.97998C64 4.97998 42.83 5.22998 12 12.98V13.75C12 15.08 12.87 16.25 14.14 16.62C17.86 17.72 27.27 20.15 32.32 21.16C32.24 21.24 31.22 23.03 30.49 24.69C30.49 24.69 38.63 30.41 64.01 32.97C89.39 30.41 97.77 25.39 97.77 25.39C96.89 23.58 95.98 21.9 95.98 21.9C100.48 21.16 110.21 17.83 113.93 16.64C115.18 16.24 116.02 15.09 116.02 13.78V12.98H116Z" fill="url(#paint1_linear_549_2453)"/>
<path d="M64 4.97998C64 4.97998 42.83 5.22998 12 12.98C12 12.98 47.41 22.65 64 22.36C80.59 22.65 116 12.98 116 12.98C85.17 5.22998 64 4.97998 64 4.97998Z" fill="url(#paint2_linear_549_2453)"/>
<path opacity="0.4" d="M116 12.98C85.17 5.22998 64 4.97998 64 4.97998C64 4.97998 42.83 5.22998 12 12.98V13.75C12 15.08 12.87 16.25 14.14 16.62C17.86 17.72 27.27 20.31 32.32 21.33C32.32 21.33 31.36 22.89 30.49 24.86C30.49 24.86 38.63 30.41 64.01 32.98C89.39 30.42 97.77 25.4 97.77 25.4C96.89 23.59 95.98 21.91 95.98 21.91C100.48 21.17 110.21 17.84 113.93 16.65C115.18 16.25 116.02 15.1 116.02 13.79V12.98H116Z" fill="url(#paint3_linear_549_2453)"/>
<path d="M114.5 120.99C114.5 106.38 92.75 99.4501 73.78 97.8901L65.18 108.92C64.9 109.28 64.46 109.5 64 109.5C63.54 109.5 63.1 109.29 62.82 108.92L54.2 97.8701C43.65 98.6801 13.49 102.62 13.49 120.99V124H114.49L114.5 120.99Z" fill="#212121"/>
<path d="M114.5 120.99C114.5 106.38 92.75 99.4501 73.78 97.8901L65.18 108.92C64.9 109.28 64.46 109.5 64 109.5C63.54 109.5 63.1 109.29 62.82 108.92L54.2 97.8701C43.65 98.6801 13.49 102.62 13.49 120.99V124H114.49L114.5 120.99Z" fill="url(#paint4_radial_549_2453)"/>
<defs>
<radialGradient id="paint0_radial_549_2453" cx="0" cy="0" r="1" gradientUnits="userSpaceOnUse" gradientTransform="translate(64.001 46.6642) scale(37.873 42.7283)">
<stop offset="0.794" stop-color="#554138" stop-opacity="0"/>
<stop offset="1" stop-color="#554138"/>
</radialGradient>
<linearGradient id="paint1_linear_549_2453" x1="64" y1="0.64898" x2="64" y2="29.29" gradientUnits="userSpaceOnUse">
<stop offset="0.003" stop-color="#212121"/>
<stop offset="0.472" stop-color="#353535"/>
<stop offset="1" stop-color="#212121"/>
</linearGradient>
<linearGradient id="paint2_linear_549_2453" x1="64" y1="0.815981" x2="64" y2="31.816" gradientUnits="userSpaceOnUse">
<stop offset="0.003" stop-color="#616161"/>
<stop offset="0.324" stop-color="#505050"/>
<stop offset="0.955" stop-color="#242424"/>
<stop offset="1" stop-color="#212121"/>
</linearGradient>
<linearGradient id="paint3_linear_549_2453" x1="13.893" y1="18.983" x2="114.721" y2="18.983" gradientUnits="userSpaceOnUse">
<stop offset="0.001" stop-color="#BFBEBE"/>
<stop offset="0.3" stop-color="#212121" stop-opacity="0"/>
<stop offset="0.7" stop-color="#212121" stop-opacity="0"/>
<stop offset="1" stop-color="#BFBEBE"/>
</linearGradient>
<radialGradient id="paint4_radial_549_2453" cx="0" cy="0" r="1" gradientUnits="userSpaceOnUse" gradientTransform="translate(64 122.603) scale(54.167 28.4214)">
<stop offset="0.598" stop-color="#212121"/>
<stop offset="1" stop-color="#616161"/>
</radialGradient>
</defs>
</svg>
