<svg width="213" height="127" viewBox="0 0 213 127" fill="none" xmlns="http://www.w3.org/2000/svg">
<rect width="213" height="127" rx="8" fill="#1A54C2"/>
<path d="M44.8352 48.4545V49.3068H41.3068V48.4545H44.8352ZM42.3636 55V47.5511C42.3636 47.1761 42.4517 46.8636 42.6278 46.6136C42.804 46.3636 43.0327 46.1761 43.3139 46.0511C43.5952 45.9261 43.892 45.8636 44.2045 45.8636C44.4517 45.8636 44.6534 45.8835 44.8097 45.9233C44.9659 45.9631 45.0824 46 45.1591 46.0341L44.8693 46.9034C44.8182 46.8864 44.7472 46.8651 44.6562 46.8395C44.5682 46.8139 44.4517 46.8011 44.3068 46.8011C43.9744 46.8011 43.7344 46.8849 43.5866 47.0526C43.4418 47.2202 43.3693 47.4659 43.3693 47.7898V55H42.3636ZM48.6342 55.1364C48.0433 55.1364 47.5249 54.9957 47.0788 54.7145C46.6357 54.4332 46.2891 54.0398 46.0391 53.5341C45.7919 53.0284 45.6683 52.4375 45.6683 51.7614C45.6683 51.0795 45.7919 50.4844 46.0391 49.9759C46.2891 49.4673 46.6357 49.0724 47.0788 48.7912C47.5249 48.5099 48.0433 48.3693 48.6342 48.3693C49.2251 48.3693 49.7422 48.5099 50.1854 48.7912C50.6314 49.0724 50.978 49.4673 51.2251 49.9759C51.4751 50.4844 51.6001 51.0795 51.6001 51.7614C51.6001 52.4375 51.4751 53.0284 51.2251 53.5341C50.978 54.0398 50.6314 54.4332 50.1854 54.7145C49.7422 54.9957 49.2251 55.1364 48.6342 55.1364ZM48.6342 54.233C49.0831 54.233 49.4524 54.1179 49.7422 53.8878C50.032 53.6577 50.2464 53.3551 50.3857 52.9801C50.5249 52.6051 50.5945 52.1989 50.5945 51.7614C50.5945 51.3239 50.5249 50.9162 50.3857 50.5384C50.2464 50.1605 50.032 49.8551 49.7422 49.6222C49.4524 49.3892 49.0831 49.2727 48.6342 49.2727C48.1854 49.2727 47.8161 49.3892 47.5263 49.6222C47.2365 49.8551 47.022 50.1605 46.8828 50.5384C46.7436 50.9162 46.674 51.3239 46.674 51.7614C46.674 52.1989 46.7436 52.6051 46.8828 52.9801C47.022 53.3551 47.2365 53.6577 47.5263 53.8878C47.8161 54.1179 48.1854 54.233 48.6342 54.233ZM54.141 46.2727V55H53.1353V46.2727H54.141ZM56.9886 46.2727V55H55.983V46.2727H56.9886ZM61.4897 55.1364C60.8988 55.1364 60.3803 54.9957 59.9343 54.7145C59.4911 54.4332 59.1445 54.0398 58.8945 53.5341C58.6474 53.0284 58.5238 52.4375 58.5238 51.7614C58.5238 51.0795 58.6474 50.4844 58.8945 49.9759C59.1445 49.4673 59.4911 49.0724 59.9343 48.7912C60.3803 48.5099 60.8988 48.3693 61.4897 48.3693C62.0806 48.3693 62.5977 48.5099 63.0408 48.7912C63.4869 49.0724 63.8335 49.4673 64.0806 49.9759C64.3306 50.4844 64.4556 51.0795 64.4556 51.7614C64.4556 52.4375 64.3306 53.0284 64.0806 53.5341C63.8335 54.0398 63.4869 54.4332 63.0408 54.7145C62.5977 54.9957 62.0806 55.1364 61.4897 55.1364ZM61.4897 54.233C61.9386 54.233 62.3079 54.1179 62.5977 53.8878C62.8874 53.6577 63.1019 53.3551 63.2411 52.9801C63.3803 52.6051 63.4499 52.1989 63.4499 51.7614C63.4499 51.3239 63.3803 50.9162 63.2411 50.5384C63.1019 50.1605 62.8874 49.8551 62.5977 49.6222C62.3079 49.3892 61.9386 49.2727 61.4897 49.2727C61.0408 49.2727 60.6715 49.3892 60.3817 49.6222C60.092 49.8551 59.8775 50.1605 59.7383 50.5384C59.5991 50.9162 59.5295 51.3239 59.5295 51.7614C59.5295 52.1989 59.5991 52.6051 59.7383 52.9801C59.8775 53.3551 60.092 53.6577 60.3817 53.8878C60.6715 54.1179 61.0408 54.233 61.4897 54.233ZM67.2511 55L65.2567 48.4545H66.3136L67.7283 53.4659H67.7965L69.1942 48.4545H70.2681L71.6488 53.4489H71.717L73.1317 48.4545H74.1886L72.1942 55H71.2056L69.7738 49.9716H69.6715L68.2397 55H67.2511ZM83.0181 52.3239V48.4545H84.0238V55H83.0181V53.892H82.9499C82.7965 54.2244 82.5579 54.5071 82.234 54.7401C81.9102 54.9702 81.5011 55.0852 81.0067 55.0852C80.5977 55.0852 80.234 54.9957 79.9158 54.8168C79.5977 54.6349 79.3477 54.3622 79.1658 53.9986C78.984 53.6321 78.8931 53.1705 78.8931 52.6136V48.4545H79.8988V52.5455C79.8988 53.0227 80.0323 53.4034 80.2994 53.6875C80.5692 53.9716 80.913 54.1136 81.3306 54.1136C81.5806 54.1136 81.8349 54.0497 82.0934 53.9219C82.3548 53.794 82.5735 53.598 82.7496 53.3338C82.9286 53.0696 83.0181 52.733 83.0181 52.3239ZM90.5021 49.9205L89.5987 50.1761C89.5419 50.0256 89.4581 49.8793 89.3473 49.7372C89.2393 49.5923 89.0916 49.473 88.9041 49.3793C88.7166 49.2855 88.4766 49.2386 88.1839 49.2386C87.7834 49.2386 87.4496 49.331 87.1825 49.5156C86.9183 49.6974 86.7862 49.929 86.7862 50.2102C86.7862 50.4602 86.8771 50.6577 87.0589 50.8026C87.2408 50.9474 87.5249 51.0682 87.9112 51.1648L88.8828 51.4034C89.468 51.5455 89.9041 51.7628 90.1911 52.0554C90.478 52.3452 90.6214 52.7187 90.6214 53.1761C90.6214 53.5511 90.5135 53.8864 90.2976 54.1818C90.0845 54.4773 89.7862 54.7102 89.4027 54.8807C89.0192 55.0511 88.5732 55.1364 88.0646 55.1364C87.397 55.1364 86.8445 54.9915 86.407 54.7017C85.9695 54.4119 85.6925 53.9886 85.576 53.4318L86.5305 53.1932C86.6214 53.5455 86.7933 53.8097 87.0462 53.9858C87.3018 54.1619 87.6357 54.25 88.0476 54.25C88.5163 54.25 88.8885 54.1506 89.1641 53.9517C89.4425 53.75 89.5817 53.5085 89.5817 53.2273C89.5817 53 89.5021 52.8097 89.343 52.6562C89.1839 52.5 88.9396 52.3835 88.6101 52.3068L87.5192 52.0511C86.9197 51.9091 86.4794 51.6889 86.1982 51.3906C85.9197 51.0895 85.7805 50.7131 85.7805 50.2614C85.7805 49.892 85.8842 49.5653 86.0916 49.2812C86.3018 48.9972 86.5874 48.7741 86.9482 48.6122C87.3118 48.4503 87.7237 48.3693 88.1839 48.3693C88.8317 48.3693 89.3402 48.5114 89.7095 48.7955C90.0817 49.0795 90.3459 49.4545 90.5021 49.9205ZM98.1694 55.1364C97.5785 55.1364 97.06 54.9957 96.614 54.7145C96.1708 54.4332 95.8242 54.0398 95.5742 53.5341C95.3271 53.0284 95.2035 52.4375 95.2035 51.7614C95.2035 51.0795 95.3271 50.4844 95.5742 49.9759C95.8242 49.4673 96.1708 49.0724 96.614 48.7912C97.06 48.5099 97.5785 48.3693 98.1694 48.3693C98.7603 48.3693 99.2773 48.5099 99.7205 48.7912C100.167 49.0724 100.513 49.4673 100.76 49.9759C101.01 50.4844 101.135 51.0795 101.135 51.7614C101.135 52.4375 101.01 53.0284 100.76 53.5341C100.513 54.0398 100.167 54.4332 99.7205 54.7145C99.2773 54.9957 98.7603 55.1364 98.1694 55.1364ZM98.1694 54.233C98.6183 54.233 98.9876 54.1179 99.2773 53.8878C99.5671 53.6577 99.7816 53.3551 99.9208 52.9801C100.06 52.6051 100.13 52.1989 100.13 51.7614C100.13 51.3239 100.06 50.9162 99.9208 50.5384C99.7816 50.1605 99.5671 49.8551 99.2773 49.6222C98.9876 49.3892 98.6183 49.2727 98.1694 49.2727C97.7205 49.2727 97.3512 49.3892 97.0614 49.6222C96.7717 49.8551 96.5572 50.1605 96.418 50.5384C96.2788 50.9162 96.2092 51.3239 96.2092 51.7614C96.2092 52.1989 96.2788 52.6051 96.418 52.9801C96.5572 53.3551 96.7717 53.6577 97.0614 53.8878C97.3512 54.1179 97.7205 54.233 98.1694 54.233ZM103.676 51.0625V55H102.67V48.4545H103.642V49.4773H103.727C103.881 49.1449 104.114 48.8778 104.426 48.6761C104.739 48.4716 105.142 48.3693 105.636 48.3693C106.08 48.3693 106.467 48.4602 106.8 48.642C107.132 48.821 107.391 49.0938 107.575 49.4602C107.76 49.8239 107.852 50.2841 107.852 50.8409V55H106.847V50.9091C106.847 50.3949 106.713 49.9943 106.446 49.7074C106.179 49.4176 105.813 49.2727 105.347 49.2727C105.026 49.2727 104.739 49.3423 104.486 49.4815C104.236 49.6207 104.038 49.8239 103.893 50.0909C103.749 50.358 103.676 50.6818 103.676 51.0625ZM115.707 57.5909C115.221 57.5909 114.804 57.5284 114.454 57.4034C114.105 57.2812 113.814 57.1193 113.581 56.9176C113.35 56.7188 113.167 56.5057 113.031 56.2784L113.832 55.7159C113.923 55.8352 114.038 55.9716 114.177 56.125C114.316 56.2812 114.507 56.4162 114.748 56.5298C114.993 56.6463 115.312 56.7045 115.707 56.7045C116.235 56.7045 116.672 56.5767 117.015 56.321C117.359 56.0653 117.531 55.6648 117.531 55.1193V53.7898H117.446C117.372 53.9091 117.267 54.0568 117.13 54.233C116.997 54.4062 116.804 54.5611 116.551 54.6974C116.301 54.831 115.963 54.8977 115.537 54.8977C115.008 54.8977 114.534 54.7727 114.113 54.5227C113.696 54.2727 113.365 53.9091 113.12 53.4318C112.879 52.9545 112.758 52.375 112.758 51.6932C112.758 51.0227 112.876 50.4389 113.112 49.9418C113.348 49.4418 113.676 49.0554 114.096 48.7827C114.517 48.5071 115.002 48.3693 115.554 48.3693C115.98 48.3693 116.318 48.4403 116.568 48.5824C116.821 48.7216 117.014 48.8807 117.147 49.0597C117.284 49.2358 117.389 49.3807 117.463 49.4943H117.565V48.4545H118.537V55.1875C118.537 55.75 118.409 56.2074 118.153 56.5597C117.9 56.9148 117.559 57.1747 117.13 57.3395C116.704 57.5071 116.23 57.5909 115.707 57.5909ZM115.673 53.9943C116.076 53.9943 116.417 53.902 116.696 53.7173C116.974 53.5327 117.186 53.267 117.331 52.9205C117.475 52.5739 117.548 52.1591 117.548 51.6761C117.548 51.2045 117.477 50.7884 117.335 50.4276C117.193 50.0668 116.983 49.7841 116.704 49.5795C116.426 49.375 116.082 49.2727 115.673 49.2727C115.247 49.2727 114.892 49.3807 114.608 49.5966C114.326 49.8125 114.115 50.1023 113.973 50.4659C113.833 50.8295 113.764 51.233 113.764 51.6761C113.764 52.1307 113.835 52.5327 113.977 52.8821C114.122 53.2287 114.335 53.5014 114.616 53.7003C114.9 53.8963 115.252 53.9943 115.673 53.9943ZM123.037 55.1364C122.446 55.1364 121.927 54.9957 121.481 54.7145C121.038 54.4332 120.691 54.0398 120.441 53.5341C120.194 53.0284 120.071 52.4375 120.071 51.7614C120.071 51.0795 120.194 50.4844 120.441 49.9759C120.691 49.4673 121.038 49.0724 121.481 48.7912C121.927 48.5099 122.446 48.3693 123.037 48.3693C123.627 48.3693 124.145 48.5099 124.588 48.7912C125.034 49.0724 125.38 49.4673 125.627 49.9759C125.877 50.4844 126.002 51.0795 126.002 51.7614C126.002 52.4375 125.877 53.0284 125.627 53.5341C125.38 54.0398 125.034 54.4332 124.588 54.7145C124.145 54.9957 123.627 55.1364 123.037 55.1364ZM123.037 54.233C123.485 54.233 123.855 54.1179 124.145 53.8878C124.434 53.6577 124.649 53.3551 124.788 52.9801C124.927 52.6051 124.997 52.1989 124.997 51.7614C124.997 51.3239 124.927 50.9162 124.788 50.5384C124.649 50.1605 124.434 49.8551 124.145 49.6222C123.855 49.3892 123.485 49.2727 123.037 49.2727C122.588 49.2727 122.218 49.3892 121.929 49.6222C121.639 49.8551 121.424 50.1605 121.285 50.5384C121.146 50.9162 121.076 51.3239 121.076 51.7614C121.076 52.1989 121.146 52.6051 121.285 52.9801C121.424 53.3551 121.639 53.6577 121.929 53.8878C122.218 54.1179 122.588 54.233 123.037 54.233ZM130.197 55.1364C129.606 55.1364 129.087 54.9957 128.641 54.7145C128.198 54.4332 127.852 54.0398 127.602 53.5341C127.354 53.0284 127.231 52.4375 127.231 51.7614C127.231 51.0795 127.354 50.4844 127.602 49.9759C127.852 49.4673 128.198 49.0724 128.641 48.7912C129.087 48.5099 129.606 48.3693 130.197 48.3693C130.788 48.3693 131.305 48.5099 131.748 48.7912C132.194 49.0724 132.54 49.4673 132.788 49.9759C133.038 50.4844 133.163 51.0795 133.163 51.7614C133.163 52.4375 133.038 53.0284 132.788 53.5341C132.54 54.0398 132.194 54.4332 131.748 54.7145C131.305 54.9957 130.788 55.1364 130.197 55.1364ZM130.197 54.233C130.646 54.233 131.015 54.1179 131.305 53.8878C131.594 53.6577 131.809 53.3551 131.948 52.9801C132.087 52.6051 132.157 52.1989 132.157 51.7614C132.157 51.3239 132.087 50.9162 131.948 50.5384C131.809 50.1605 131.594 49.8551 131.305 49.6222C131.015 49.3892 130.646 49.2727 130.197 49.2727C129.748 49.2727 129.379 49.3892 129.089 49.6222C128.799 49.8551 128.585 50.1605 128.445 50.5384C128.306 50.9162 128.237 51.3239 128.237 51.7614C128.237 52.1989 128.306 52.6051 128.445 52.9801C128.585 53.3551 128.799 53.6577 129.089 53.8878C129.379 54.1179 129.748 54.233 130.197 54.233ZM137.34 57.5909C136.854 57.5909 136.436 57.5284 136.087 57.4034C135.738 57.2812 135.446 57.1193 135.213 56.9176C134.983 56.7188 134.8 56.5057 134.664 56.2784L135.465 55.7159C135.556 55.8352 135.671 55.9716 135.81 56.125C135.949 56.2812 136.14 56.4162 136.381 56.5298C136.625 56.6463 136.945 56.7045 137.34 56.7045C137.868 56.7045 138.304 56.5767 138.648 56.321C138.992 56.0653 139.164 55.6648 139.164 55.1193V53.7898H139.078C139.005 53.9091 138.9 54.0568 138.763 54.233C138.63 54.4062 138.436 54.5611 138.184 54.6974C137.934 54.831 137.596 54.8977 137.169 54.8977C136.641 54.8977 136.167 54.7727 135.746 54.5227C135.328 54.2727 134.998 53.9091 134.753 53.4318C134.512 52.9545 134.391 52.375 134.391 51.6932C134.391 51.0227 134.509 50.4389 134.745 49.9418C134.98 49.4418 135.309 49.0554 135.729 48.7827C136.15 48.5071 136.635 48.3693 137.186 48.3693C137.613 48.3693 137.951 48.4403 138.201 48.5824C138.453 48.7216 138.647 48.8807 138.78 49.0597C138.917 49.2358 139.022 49.3807 139.096 49.4943H139.198V48.4545H140.169V55.1875C140.169 55.75 140.042 56.2074 139.786 56.5597C139.533 56.9148 139.192 57.1747 138.763 57.3395C138.337 57.5071 137.863 57.5909 137.34 57.5909ZM137.306 53.9943C137.709 53.9943 138.05 53.902 138.328 53.7173C138.607 53.5327 138.819 53.267 138.963 52.9205C139.108 52.5739 139.181 52.1591 139.181 51.6761C139.181 51.2045 139.11 50.7884 138.968 50.4276C138.826 50.0668 138.615 49.7841 138.337 49.5795C138.059 49.375 137.715 49.2727 137.306 49.2727C136.88 49.2727 136.525 49.3807 136.24 49.5966C135.959 49.8125 135.748 50.1023 135.605 50.4659C135.466 50.8295 135.397 51.233 135.397 51.6761C135.397 52.1307 135.468 52.5327 135.61 52.8821C135.755 53.2287 135.968 53.5014 136.249 53.7003C136.533 53.8963 136.885 53.9943 137.306 53.9943ZM143.016 46.2727V55H142.01V46.2727H143.016ZM147.602 55.1364C146.972 55.1364 146.428 54.9972 145.97 54.7188C145.516 54.4375 145.165 54.0455 144.918 53.5426C144.673 53.0369 144.551 52.4489 144.551 51.7784C144.551 51.108 144.673 50.517 144.918 50.0057C145.165 49.4915 145.509 49.0909 145.949 48.804C146.392 48.5142 146.909 48.3693 147.5 48.3693C147.841 48.3693 148.178 48.4261 148.51 48.5398C148.842 48.6534 149.145 48.8381 149.418 49.0938C149.69 49.3466 149.908 49.6818 150.07 50.0994C150.232 50.517 150.312 51.0312 150.312 51.642V52.0682H145.267V51.1989H149.29C149.29 50.8295 149.216 50.5 149.068 50.2102C148.923 49.9205 148.716 49.6918 148.446 49.5241C148.179 49.3565 147.864 49.2727 147.5 49.2727C147.099 49.2727 146.753 49.3722 146.46 49.571C146.17 49.767 145.947 50.0227 145.791 50.3381C145.635 50.6534 145.557 50.9915 145.557 51.3523V51.9318C145.557 52.4261 145.642 52.8452 145.812 53.1889C145.986 53.5298 146.226 53.7898 146.533 53.9688C146.839 54.1449 147.196 54.233 147.602 54.233C147.866 54.233 148.105 54.196 148.318 54.1222C148.534 54.0455 148.72 53.9318 148.876 53.7812C149.033 53.6278 149.153 53.4375 149.239 53.2102L150.21 53.483C150.108 53.8125 149.936 54.1023 149.695 54.3523C149.453 54.5994 149.155 54.7926 148.8 54.9318C148.445 55.0682 148.045 55.1364 147.602 55.1364ZM155.217 57.4545V48.4545H156.189V49.4943H156.308C156.382 49.3807 156.484 49.2358 156.615 49.0597C156.749 48.8807 156.939 48.7216 157.186 48.5824C157.436 48.4403 157.774 48.3693 158.2 48.3693C158.751 48.3693 159.237 48.5071 159.658 48.7827C160.078 49.0582 160.406 49.4489 160.642 49.9545C160.878 50.4602 160.996 51.0568 160.996 51.7443C160.996 52.4375 160.878 53.0384 160.642 53.5469C160.406 54.0526 160.08 54.4446 159.662 54.723C159.244 54.9986 158.763 55.1364 158.217 55.1364C157.797 55.1364 157.46 55.0668 157.207 54.9276C156.955 54.7855 156.76 54.625 156.624 54.446C156.487 54.2642 156.382 54.1136 156.308 53.9943H156.223V57.4545H155.217ZM156.206 51.7273C156.206 52.2216 156.278 52.6577 156.423 53.0355C156.568 53.4105 156.78 53.7045 157.058 53.9176C157.337 54.1278 157.678 54.233 158.081 54.233C158.501 54.233 158.852 54.1222 159.134 53.9006C159.418 53.6761 159.631 53.375 159.773 52.9972C159.918 52.6165 159.99 52.1932 159.99 51.7273C159.99 51.267 159.919 50.8523 159.777 50.483C159.638 50.1108 159.426 49.8168 159.142 49.6009C158.861 49.3821 158.507 49.2727 158.081 49.2727C157.672 49.2727 157.328 49.3764 157.05 49.5838C156.771 49.7884 156.561 50.0753 156.419 50.4446C156.277 50.8111 156.206 51.2386 156.206 51.7273ZM163.536 46.2727V55H162.53V46.2727H163.536ZM169.502 52.3239V48.4545H170.508V55H169.502V53.892H169.434C169.281 54.2244 169.042 54.5071 168.718 54.7401C168.395 54.9702 167.985 55.0852 167.491 55.0852C167.082 55.0852 166.718 54.9957 166.4 54.8168C166.082 54.6349 165.832 54.3622 165.65 53.9986C165.468 53.6321 165.377 53.1705 165.377 52.6136V48.4545H166.383V52.5455C166.383 53.0227 166.517 53.4034 166.784 53.6875C167.054 53.9716 167.397 54.1136 167.815 54.1136C168.065 54.1136 168.319 54.0497 168.578 53.9219C168.839 53.794 169.058 53.598 169.234 53.3338C169.413 53.0696 169.502 52.733 169.502 52.3239ZM176.987 49.9205L176.083 50.1761C176.026 50.0256 175.942 49.8793 175.832 49.7372C175.724 49.5923 175.576 49.473 175.388 49.3793C175.201 49.2855 174.961 49.2386 174.668 49.2386C174.268 49.2386 173.934 49.331 173.667 49.5156C173.403 49.6974 173.271 49.929 173.271 50.2102C173.271 50.4602 173.362 50.6577 173.543 50.8026C173.725 50.9474 174.009 51.0682 174.396 51.1648L175.367 51.4034C175.952 51.5455 176.388 51.7628 176.675 52.0554C176.962 52.3452 177.106 52.7187 177.106 53.1761C177.106 53.5511 176.998 53.8864 176.782 54.1818C176.569 54.4773 176.271 54.7102 175.887 54.8807C175.504 55.0511 175.058 55.1364 174.549 55.1364C173.881 55.1364 173.329 54.9915 172.891 54.7017C172.454 54.4119 172.177 53.9886 172.06 53.4318L173.015 53.1932C173.106 53.5455 173.278 53.8097 173.531 53.9858C173.786 54.1619 174.12 54.25 174.532 54.25C175.001 54.25 175.373 54.1506 175.648 53.9517C175.927 53.75 176.066 53.5085 176.066 53.2273C176.066 53 175.987 52.8097 175.827 52.6562C175.668 52.5 175.424 52.3835 175.094 52.3068L174.004 52.0511C173.404 51.9091 172.964 51.6889 172.683 51.3906C172.404 51.0895 172.265 50.7131 172.265 50.2614C172.265 49.892 172.369 49.5653 172.576 49.2812C172.786 48.9972 173.072 48.7741 173.433 48.6122C173.796 48.4503 174.208 48.3693 174.668 48.3693C175.316 48.3693 175.825 48.5114 176.194 48.7955C176.566 49.0795 176.83 49.4545 176.987 49.9205Z" fill="white"/>
<path d="M110 61C106.134 61 103 64.1344 103 68C103 71.8656 106.134 75 110 75C113.866 75 117 71.8656 117 68C117 64.1344 113.866 61 110 61ZM110.57 69.7312C109.884 70.6969 108.506 70.9781 107.431 70.5641C106.353 70.1531 105.588 69.0141 105.68 67.8531C105.703 66.4328 107.011 65.1875 108.431 65.2359C109.113 65.2047 109.753 65.5 110.275 65.9172C110.052 66.1703 109.822 66.4141 109.575 66.6406C108.948 66.2078 108.056 66.0844 107.43 66.5844C106.533 67.2047 106.492 68.6687 107.355 69.3359C108.194 70.0969 109.78 69.7188 110.012 68.5531C109.487 68.5453 108.959 68.5531 108.434 68.5359C108.433 68.2219 108.431 67.9094 108.433 67.5953C109.311 67.5922 110.191 67.5906 111.07 67.5984C111.122 68.3375 111.023 69.1219 110.57 69.7312ZM114.359 68.3828C114.097 68.3859 113.834 68.3875 113.572 68.3891C113.569 68.6516 113.567 68.9141 113.567 69.1766H112.781C112.778 68.9141 112.778 68.6531 112.777 68.3906C112.514 68.3875 112.252 68.3859 111.989 68.3828V67.6C112.252 67.5969 112.514 67.5953 112.777 67.5953C112.778 67.3328 112.781 67.0703 112.783 66.8078H113.567L113.572 67.5953C113.834 67.5984 114.097 67.5984 114.359 67.6V68.3828Z" fill="white"/>
</svg>
