<svg width="213" height="127" viewBox="0 0 213 127" fill="none" xmlns="http://www.w3.org/2000/svg">
<rect width="213" height="127" rx="8" fill="#1A54C2"/>
<path d="M62.0568 55V46.2727H63.1136V54.0625H67.1705V55H62.0568ZM68.6705 55V48.4545H69.6761V55H68.6705ZM69.1818 47.3636C68.9858 47.3636 68.8168 47.2969 68.6747 47.1634C68.5355 47.0298 68.4659 46.8693 68.4659 46.6818C68.4659 46.4943 68.5355 46.3338 68.6747 46.2003C68.8168 46.0668 68.9858 46 69.1818 46C69.3778 46 69.5455 46.0668 69.6847 46.2003C69.8267 46.3338 69.8977 46.4943 69.8977 46.6818C69.8977 46.8693 69.8267 47.0298 69.6847 47.1634C69.5455 47.2969 69.3778 47.3636 69.1818 47.3636ZM72.4556 52.6136L72.4386 51.3693H72.6431L75.5067 48.4545H76.7511L73.6999 51.5398H73.6147L72.4556 52.6136ZM71.5181 55V46.2727H72.5238V55H71.5181ZM75.6772 55L73.1204 51.7614L73.8363 51.0625L76.9556 55H75.6772ZM80.5202 55.1364C79.8896 55.1364 79.3455 54.9972 78.8881 54.7188C78.4336 54.4375 78.0827 54.0455 77.8356 53.5426C77.5913 53.0369 77.4691 52.4489 77.4691 51.7784C77.4691 51.108 77.5913 50.517 77.8356 50.0057C78.0827 49.4915 78.4265 49.0909 78.8668 48.804C79.31 48.5142 79.8271 48.3693 80.418 48.3693C80.7589 48.3693 81.0955 48.4261 81.4279 48.5398C81.7603 48.6534 82.0629 48.8381 82.3356 49.0938C82.6083 49.3466 82.8256 49.6818 82.9876 50.0994C83.1495 50.517 83.2305 51.0312 83.2305 51.642V52.0682H78.185V51.1989H82.2077C82.2077 50.8295 82.1339 50.5 81.9862 50.2102C81.8413 49.9205 81.6339 49.6918 81.364 49.5241C81.0969 49.3565 80.7816 49.2727 80.418 49.2727C80.0174 49.2727 79.6708 49.3722 79.3782 49.571C79.0884 49.767 78.8654 50.0227 78.7092 50.3381C78.5529 50.6534 78.4748 50.9915 78.4748 51.3523V51.9318C78.4748 52.4261 78.56 52.8452 78.7305 53.1889C78.9038 53.5298 79.1438 53.7898 79.4506 53.9688C79.7575 54.1449 80.114 54.233 80.5202 54.233C80.7844 54.233 81.0231 54.196 81.2362 54.1222C81.4521 54.0455 81.6381 53.9318 81.7944 53.7812C81.9506 53.6278 82.0714 53.4375 82.1566 53.2102L83.1282 53.483C83.0259 53.8125 82.854 54.1023 82.6126 54.3523C82.3711 54.5994 82.0728 54.7926 81.7177 54.9318C81.3626 55.0682 80.9634 55.1364 80.5202 55.1364ZM92.2603 52.3239V48.4545H93.266V55H92.2603V53.892H92.1921C92.0387 54.2244 91.8001 54.5071 91.4762 54.7401C91.1523 54.9702 90.7433 55.0852 90.2489 55.0852C89.8398 55.0852 89.4762 54.9957 89.158 54.8168C88.8398 54.6349 88.5898 54.3622 88.408 53.9986C88.2262 53.6321 88.1353 53.1705 88.1353 52.6136V48.4545H89.141V52.5455C89.141 53.0227 89.2745 53.4034 89.5415 53.6875C89.8114 53.9716 90.1552 54.1136 90.5728 54.1136C90.8228 54.1136 91.0771 54.0497 91.3356 53.9219C91.5969 53.794 91.8157 53.598 91.9918 53.3338C92.1708 53.0696 92.2603 52.733 92.2603 52.3239ZM99.7443 49.9205L98.8409 50.1761C98.7841 50.0256 98.7003 49.8793 98.5895 49.7372C98.4815 49.5923 98.3338 49.473 98.1463 49.3793C97.9588 49.2855 97.7188 49.2386 97.4261 49.2386C97.0256 49.2386 96.6918 49.331 96.4247 49.5156C96.1605 49.6974 96.0284 49.929 96.0284 50.2102C96.0284 50.4602 96.1193 50.6577 96.3011 50.8026C96.483 50.9474 96.767 51.0682 97.1534 51.1648L98.125 51.4034C98.7102 51.5455 99.1463 51.7628 99.4332 52.0554C99.7202 52.3452 99.8636 52.7187 99.8636 53.1761C99.8636 53.5511 99.7557 53.8864 99.5398 54.1818C99.3267 54.4773 99.0284 54.7102 98.6449 54.8807C98.2614 55.0511 97.8153 55.1364 97.3068 55.1364C96.6392 55.1364 96.0866 54.9915 95.6491 54.7017C95.2116 54.4119 94.9347 53.9886 94.8182 53.4318L95.7727 53.1932C95.8636 53.5455 96.0355 53.8097 96.2884 53.9858C96.544 54.1619 96.8778 54.25 97.2898 54.25C97.7585 54.25 98.1307 54.1506 98.4062 53.9517C98.6847 53.75 98.8239 53.5085 98.8239 53.2273C98.8239 53 98.7443 52.8097 98.5852 52.6562C98.4261 52.5 98.1818 52.3835 97.8523 52.3068L96.7614 52.0511C96.1619 51.9091 95.7216 51.6889 95.4403 51.3906C95.1619 51.0895 95.0227 50.7131 95.0227 50.2614C95.0227 49.892 95.1264 49.5653 95.3338 49.2812C95.544 48.9972 95.8295 48.7741 96.1903 48.6122C96.554 48.4503 96.9659 48.3693 97.4261 48.3693C98.0739 48.3693 98.5824 48.5114 98.9517 48.7955C99.3239 49.0795 99.5881 49.4545 99.7443 49.9205ZM107.412 55.1364C106.821 55.1364 106.302 54.9957 105.856 54.7145C105.413 54.4332 105.066 54.0398 104.816 53.5341C104.569 53.0284 104.446 52.4375 104.446 51.7614C104.446 51.0795 104.569 50.4844 104.816 49.9759C105.066 49.4673 105.413 49.0724 105.856 48.7912C106.302 48.5099 106.821 48.3693 107.412 48.3693C108.002 48.3693 108.52 48.5099 108.963 48.7912C109.409 49.0724 109.755 49.4673 110.002 49.9759C110.252 50.4844 110.377 51.0795 110.377 51.7614C110.377 52.4375 110.252 53.0284 110.002 53.5341C109.755 54.0398 109.409 54.4332 108.963 54.7145C108.52 54.9957 108.002 55.1364 107.412 55.1364ZM107.412 54.233C107.86 54.233 108.23 54.1179 108.52 53.8878C108.809 53.6577 109.024 53.3551 109.163 52.9801C109.302 52.6051 109.372 52.1989 109.372 51.7614C109.372 51.3239 109.302 50.9162 109.163 50.5384C109.024 50.1605 108.809 49.8551 108.52 49.6222C108.23 49.3892 107.86 49.2727 107.412 49.2727C106.963 49.2727 106.593 49.3892 106.304 49.6222C106.014 49.8551 105.799 50.1605 105.66 50.5384C105.521 50.9162 105.451 51.3239 105.451 51.7614C105.451 52.1989 105.521 52.6051 105.66 52.9801C105.799 53.3551 106.014 53.6577 106.304 53.8878C106.593 54.1179 106.963 54.233 107.412 54.233ZM112.918 51.0625V55H111.913V48.4545H112.884V49.4773H112.969C113.123 49.1449 113.356 48.8778 113.668 48.6761C113.981 48.4716 114.384 48.3693 114.879 48.3693C115.322 48.3693 115.71 48.4602 116.042 48.642C116.374 48.821 116.633 49.0938 116.817 49.4602C117.002 49.8239 117.094 50.2841 117.094 50.8409V55H116.089V50.9091C116.089 50.3949 115.955 49.9943 115.688 49.7074C115.421 49.4176 115.055 49.2727 114.589 49.2727C114.268 49.2727 113.981 49.3423 113.728 49.4815C113.478 49.6207 113.281 49.8239 113.136 50.0909C112.991 50.358 112.918 50.6818 112.918 51.0625ZM123.313 46.2727V55H122.307V46.2727H123.313ZM125.155 55V48.4545H126.161V55H125.155ZM125.666 47.3636C125.47 47.3636 125.301 47.2969 125.159 47.1634C125.02 47.0298 124.95 46.8693 124.95 46.6818C124.95 46.4943 125.02 46.3338 125.159 46.2003C125.301 46.0668 125.47 46 125.666 46C125.862 46 126.03 46.0668 126.169 46.2003C126.311 46.3338 126.382 46.4943 126.382 46.6818C126.382 46.8693 126.311 47.0298 126.169 47.1634C126.03 47.2969 125.862 47.3636 125.666 47.3636ZM129.008 51.0625V55H128.002V48.4545H128.974V49.4773H129.059C129.213 49.1449 129.446 48.8778 129.758 48.6761C130.071 48.4716 130.474 48.3693 130.968 48.3693C131.412 48.3693 131.799 48.4602 132.132 48.642C132.464 48.821 132.723 49.0938 132.907 49.4602C133.092 49.8239 133.184 50.2841 133.184 50.8409V55H132.179V50.9091C132.179 50.3949 132.045 49.9943 131.778 49.7074C131.511 49.4176 131.145 49.2727 130.679 49.2727C130.358 49.2727 130.071 49.3423 129.818 49.4815C129.568 49.6207 129.37 49.8239 129.225 50.0909C129.081 50.358 129.008 50.6818 129.008 51.0625ZM135.96 52.6136L135.942 51.3693H136.147L139.011 48.4545H140.255L137.204 51.5398H137.119L135.96 52.6136ZM135.022 55V46.2727H136.028V55H135.022ZM139.181 55L136.624 51.7614L137.34 51.0625L140.46 55H139.181ZM144.024 55.1364C143.393 55.1364 142.849 54.9972 142.392 54.7188C141.938 54.4375 141.587 54.0455 141.339 53.5426C141.095 53.0369 140.973 52.4489 140.973 51.7784C140.973 51.108 141.095 50.517 141.339 50.0057C141.587 49.4915 141.93 49.0909 142.371 48.804C142.814 48.5142 143.331 48.3693 143.922 48.3693C144.263 48.3693 144.599 48.4261 144.932 48.5398C145.264 48.6534 145.567 48.8381 145.839 49.0938C146.112 49.3466 146.33 49.6818 146.491 50.0994C146.653 50.517 146.734 51.0312 146.734 51.642V52.0682H141.689V51.1989H145.712C145.712 50.8295 145.638 50.5 145.49 50.2102C145.345 49.9205 145.138 49.6918 144.868 49.5241C144.601 49.3565 144.286 49.2727 143.922 49.2727C143.521 49.2727 143.175 49.3722 142.882 49.571C142.592 49.767 142.369 50.0227 142.213 50.3381C142.057 50.6534 141.979 50.9915 141.979 51.3523V51.9318C141.979 52.4261 142.064 52.8452 142.234 53.1889C142.408 53.5298 142.648 53.7898 142.955 53.9688C143.261 54.1449 143.618 54.233 144.024 54.233C144.288 54.233 144.527 54.196 144.74 54.1222C144.956 54.0455 145.142 53.9318 145.298 53.7812C145.455 53.6278 145.575 53.4375 145.661 53.2102L146.632 53.483C146.53 53.8125 146.358 54.1023 146.116 54.3523C145.875 54.5994 145.577 54.7926 145.222 54.9318C144.866 55.0682 144.467 55.1364 144.024 55.1364ZM150.736 55.1364C150.19 55.1364 149.709 54.9986 149.291 54.723C148.874 54.4446 148.547 54.0526 148.311 53.5469C148.075 53.0384 147.957 52.4375 147.957 51.7443C147.957 51.0568 148.075 50.4602 148.311 49.9545C148.547 49.4489 148.875 49.0582 149.295 48.7827C149.716 48.5071 150.202 48.3693 150.753 48.3693C151.179 48.3693 151.516 48.4403 151.763 48.5824C152.013 48.7216 152.203 48.8807 152.334 49.0597C152.467 49.2358 152.571 49.3807 152.645 49.4943H152.73V46.2727H153.736V55H152.764V53.9943H152.645C152.571 54.1136 152.466 54.2642 152.33 54.446C152.193 54.625 151.999 54.7855 151.746 54.9276C151.493 55.0668 151.156 55.1364 150.736 55.1364ZM150.872 54.233C151.276 54.233 151.616 54.1278 151.895 53.9176C152.173 53.7045 152.385 53.4105 152.53 53.0355C152.675 52.6577 152.747 52.2216 152.747 51.7273C152.747 51.2386 152.676 50.8111 152.534 50.4446C152.392 50.0753 152.182 49.7884 151.903 49.5838C151.625 49.3764 151.281 49.2727 150.872 49.2727C150.446 49.2727 150.091 49.3821 149.807 49.6009C149.526 49.8168 149.314 50.1108 149.172 50.483C149.033 50.8523 148.963 51.267 148.963 51.7273C148.963 52.1932 149.034 52.6165 149.176 52.9972C149.321 53.375 149.534 53.6761 149.815 53.9006C150.099 54.1222 150.452 54.233 150.872 54.233ZM155.717 55V48.4545H156.723V55H155.717ZM156.229 47.3636C156.033 47.3636 155.864 47.2969 155.722 47.1634C155.582 47.0298 155.513 46.8693 155.513 46.6818C155.513 46.4943 155.582 46.3338 155.722 46.2003C155.864 46.0668 156.033 46 156.229 46C156.425 46 156.592 46.0668 156.732 46.2003C156.874 46.3338 156.945 46.4943 156.945 46.6818C156.945 46.8693 156.874 47.0298 156.732 47.1634C156.592 47.2969 156.425 47.3636 156.229 47.3636ZM159.571 51.0625V55H158.565V48.4545H159.537V49.4773H159.622C159.775 49.1449 160.008 48.8778 160.321 48.6761C160.633 48.4716 161.037 48.3693 161.531 48.3693C161.974 48.3693 162.362 48.4602 162.694 48.642C163.027 48.821 163.285 49.0938 163.47 49.4602C163.654 49.8239 163.747 50.2841 163.747 50.8409V55H162.741V50.9091C162.741 50.3949 162.608 49.9943 162.341 49.7074C162.074 49.4176 161.707 49.2727 161.241 49.2727C160.92 49.2727 160.633 49.3423 160.38 49.4815C160.13 49.6207 159.933 49.8239 159.788 50.0909C159.643 50.358 159.571 50.6818 159.571 51.0625Z" fill="white"/>
<g clip-path="url(#clip0_547_838)">
<path d="M104 60.3199C99.7585 60.3199 96.3201 63.7583 96.3201 67.9999C96.3201 72.2415 99.7585 75.6799 104 75.6799C108.242 75.6799 111.68 72.2415 111.68 67.9999C111.68 63.7583 108.242 60.3199 104 60.3199ZM102.12 71.1831H100.565V66.1783H102.12V71.1831ZM101.333 65.5639C100.842 65.5639 100.524 65.2159 100.524 64.7855C100.524 64.3463 100.851 64.0087 101.353 64.0087C101.854 64.0087 102.162 64.3463 102.171 64.7855C102.171 65.2159 101.854 65.5639 101.333 65.5639ZM107.8 71.1831H106.245V68.4095C106.245 67.7639 106.019 67.3255 105.457 67.3255C105.027 67.3255 104.772 67.6223 104.659 67.9079C104.618 68.0095 104.607 68.1535 104.607 68.2967V71.1823H103.051V67.7743C103.051 67.1495 103.031 66.6271 103.01 66.1775H104.362L104.433 66.8727H104.464C104.669 66.5463 105.17 66.0647 106.01 66.0647C107.033 66.0647 107.8 66.7503 107.8 68.2239V71.1831Z" fill="white"/>
</g>
<defs>
<clipPath id="clip0_547_838">
<rect width="16" height="16" fill="white" transform="translate(96 60)"/>
</clipPath>
</defs>
</svg>
