<svg width="310" height="284" viewBox="0 0 310 284" fill="none" xmlns="http://www.w3.org/2000/svg">
<g filter="url(#filter0_d_529_826)">
<rect x="4" width="302" height="276" rx="16" fill="white" shape-rendering="crispEdges"/>
<path d="M67.2784 193.438H64.7898C64.7443 193.116 64.6515 192.83 64.5114 192.58C64.3712 192.326 64.1913 192.11 63.9716 191.932C63.7519 191.754 63.4981 191.617 63.2102 191.523C62.9261 191.428 62.6174 191.381 62.2841 191.381C61.6818 191.381 61.1572 191.53 60.7102 191.83C60.2633 192.125 59.9167 192.557 59.6705 193.125C59.4242 193.689 59.3011 194.375 59.3011 195.182C59.3011 196.011 59.4242 196.708 59.6705 197.273C59.9205 197.837 60.2689 198.263 60.7159 198.551C61.1629 198.839 61.6799 198.983 62.267 198.983C62.5966 198.983 62.9015 198.939 63.1818 198.852C63.4659 198.765 63.7178 198.638 63.9375 198.472C64.1572 198.301 64.339 198.095 64.483 197.852C64.6307 197.61 64.733 197.333 64.7898 197.023L67.2784 197.034C67.214 197.568 67.053 198.083 66.7955 198.58C66.5417 199.072 66.1989 199.513 65.767 199.903C65.339 200.29 64.8277 200.597 64.233 200.824C63.642 201.047 62.9735 201.159 62.2273 201.159C61.1894 201.159 60.2614 200.924 59.4432 200.455C58.6288 199.985 57.9848 199.305 57.5114 198.415C57.0417 197.525 56.8068 196.447 56.8068 195.182C56.8068 193.913 57.0455 192.833 57.5227 191.943C58 191.053 58.6477 190.375 59.4659 189.909C60.2841 189.439 61.2045 189.205 62.2273 189.205C62.9015 189.205 63.5265 189.299 64.1023 189.489C64.6818 189.678 65.1951 189.955 65.642 190.318C66.089 190.678 66.4527 191.119 66.733 191.642C67.017 192.165 67.1989 192.763 67.2784 193.438ZM72.9403 201.17C72.0578 201.17 71.2945 200.983 70.6506 200.608C70.0104 200.229 69.5161 199.703 69.1676 199.028C68.8191 198.35 68.6449 197.564 68.6449 196.67C68.6449 195.769 68.8191 194.981 69.1676 194.307C69.5161 193.629 70.0104 193.102 70.6506 192.727C71.2945 192.348 72.0578 192.159 72.9403 192.159C73.8229 192.159 74.5843 192.348 75.2244 192.727C75.8684 193.102 76.3646 193.629 76.7131 194.307C77.0616 194.981 77.2358 195.769 77.2358 196.67C77.2358 197.564 77.0616 198.35 76.7131 199.028C76.3646 199.703 75.8684 200.229 75.2244 200.608C74.5843 200.983 73.8229 201.17 72.9403 201.17ZM72.9517 199.295C73.3532 199.295 73.6884 199.182 73.9574 198.955C74.2263 198.723 74.429 198.409 74.5653 198.011C74.7055 197.614 74.7756 197.161 74.7756 196.653C74.7756 196.146 74.7055 195.693 74.5653 195.295C74.429 194.898 74.2263 194.583 73.9574 194.352C73.6884 194.121 73.3532 194.006 72.9517 194.006C72.5464 194.006 72.2055 194.121 71.929 194.352C71.6563 194.583 71.4498 194.898 71.3097 195.295C71.1733 195.693 71.1051 196.146 71.1051 196.653C71.1051 197.161 71.1733 197.614 71.3097 198.011C71.4498 198.409 71.6563 198.723 71.929 198.955C72.2055 199.182 72.5464 199.295 72.9517 199.295ZM81.2301 195.955V201H78.8097V192.273H81.1165V193.812H81.2188C81.4119 193.305 81.7358 192.903 82.1903 192.608C82.6449 192.309 83.196 192.159 83.8438 192.159C84.4498 192.159 84.9782 192.292 85.429 192.557C85.8797 192.822 86.2301 193.201 86.4801 193.693C86.7301 194.182 86.8551 194.765 86.8551 195.443V201H84.4347V195.875C84.4384 195.341 84.3021 194.924 84.0256 194.625C83.7491 194.322 83.3684 194.17 82.8835 194.17C82.5578 194.17 82.2699 194.241 82.0199 194.381C81.7737 194.521 81.5805 194.725 81.4403 194.994C81.304 195.259 81.2339 195.58 81.2301 195.955ZM93.4048 192.273V194.091H88.1491V192.273H93.4048ZM89.3423 190.182H91.7628V198.318C91.7628 198.542 91.7969 198.716 91.8651 198.841C91.9332 198.962 92.0279 199.047 92.1491 199.097C92.2741 199.146 92.4181 199.17 92.581 199.17C92.6946 199.17 92.8082 199.161 92.9219 199.142C93.0355 199.119 93.1226 199.102 93.1832 199.091L93.5639 200.892C93.4427 200.93 93.2723 200.973 93.0526 201.023C92.8329 201.076 92.5658 201.108 92.2514 201.119C91.6681 201.142 91.1567 201.064 90.7173 200.886C90.2817 200.708 89.9427 200.432 89.7003 200.057C89.4579 199.682 89.3385 199.208 89.3423 198.636V190.182ZM94.9815 201V192.273H97.3281V193.795H97.419C97.5781 193.254 97.8452 192.845 98.2202 192.568C98.5952 192.288 99.027 192.148 99.5156 192.148C99.6368 192.148 99.7675 192.155 99.9077 192.17C100.048 192.186 100.171 192.206 100.277 192.233V194.381C100.163 194.347 100.006 194.316 99.8054 194.29C99.6046 194.263 99.4209 194.25 99.2543 194.25C98.8982 194.25 98.58 194.328 98.2997 194.483C98.0232 194.634 97.8035 194.847 97.6406 195.119C97.4815 195.392 97.402 195.706 97.402 196.062V201H94.9815ZM103.767 201.165C103.21 201.165 102.714 201.068 102.278 200.875C101.843 200.678 101.498 200.388 101.244 200.006C100.994 199.619 100.869 199.138 100.869 198.562C100.869 198.078 100.958 197.67 101.136 197.341C101.314 197.011 101.557 196.746 101.864 196.545C102.17 196.345 102.519 196.193 102.909 196.091C103.303 195.989 103.716 195.917 104.148 195.875C104.655 195.822 105.064 195.773 105.375 195.727C105.686 195.678 105.911 195.606 106.051 195.511C106.191 195.417 106.261 195.277 106.261 195.091V195.057C106.261 194.697 106.148 194.419 105.92 194.222C105.697 194.025 105.379 193.926 104.966 193.926C104.53 193.926 104.184 194.023 103.926 194.216C103.669 194.405 103.498 194.644 103.415 194.932L101.176 194.75C101.29 194.22 101.513 193.761 101.847 193.375C102.18 192.985 102.61 192.686 103.136 192.477C103.667 192.265 104.28 192.159 104.977 192.159C105.462 192.159 105.926 192.216 106.369 192.33C106.816 192.443 107.212 192.619 107.557 192.858C107.905 193.097 108.18 193.403 108.381 193.778C108.581 194.15 108.682 194.595 108.682 195.114V201H106.386V199.79H106.318C106.178 200.062 105.991 200.303 105.756 200.511C105.521 200.716 105.239 200.877 104.909 200.994C104.58 201.108 104.199 201.165 103.767 201.165ZM104.46 199.494C104.816 199.494 105.131 199.424 105.403 199.284C105.676 199.14 105.89 198.947 106.045 198.705C106.201 198.462 106.278 198.187 106.278 197.881V196.955C106.203 197.004 106.098 197.049 105.966 197.091C105.837 197.129 105.691 197.165 105.528 197.199C105.366 197.229 105.203 197.258 105.04 197.284C104.877 197.307 104.729 197.328 104.597 197.347C104.313 197.388 104.064 197.455 103.852 197.545C103.64 197.636 103.475 197.759 103.358 197.915C103.241 198.066 103.182 198.256 103.182 198.483C103.182 198.812 103.301 199.064 103.54 199.239C103.782 199.409 104.089 199.494 104.46 199.494ZM114.503 201.17C113.609 201.17 112.84 200.981 112.196 200.602C111.556 200.22 111.063 199.689 110.719 199.011C110.378 198.333 110.207 197.553 110.207 196.67C110.207 195.777 110.38 194.992 110.724 194.318C111.073 193.64 111.567 193.112 112.207 192.733C112.848 192.35 113.609 192.159 114.491 192.159C115.253 192.159 115.92 192.297 116.491 192.574C117.063 192.85 117.516 193.239 117.849 193.739C118.183 194.239 118.366 194.826 118.401 195.5H116.116C116.052 195.064 115.882 194.714 115.605 194.449C115.332 194.18 114.974 194.045 114.531 194.045C114.156 194.045 113.829 194.148 113.548 194.352C113.272 194.553 113.056 194.847 112.901 195.233C112.745 195.619 112.668 196.087 112.668 196.636C112.668 197.193 112.743 197.667 112.895 198.057C113.05 198.447 113.268 198.744 113.548 198.949C113.829 199.153 114.156 199.256 114.531 199.256C114.808 199.256 115.056 199.199 115.276 199.085C115.499 198.972 115.683 198.807 115.827 198.591C115.974 198.371 116.071 198.108 116.116 197.801H118.401C118.363 198.468 118.181 199.055 117.855 199.562C117.533 200.066 117.088 200.46 116.52 200.744C115.952 201.028 115.279 201.17 114.503 201.17ZM124.592 192.273V194.091H119.337V192.273H124.592ZM120.53 190.182H122.95V198.318C122.95 198.542 122.984 198.716 123.053 198.841C123.121 198.962 123.215 199.047 123.337 199.097C123.462 199.146 123.606 199.17 123.768 199.17C123.882 199.17 123.996 199.161 124.109 199.142C124.223 199.119 124.31 199.102 124.371 199.091L124.751 200.892C124.63 200.93 124.46 200.973 124.24 201.023C124.02 201.076 123.753 201.108 123.439 201.119C122.856 201.142 122.344 201.064 121.905 200.886C121.469 200.708 121.13 200.432 120.888 200.057C120.645 199.682 120.526 199.208 120.53 198.636V190.182ZM130.018 201.17C129.136 201.17 128.373 200.983 127.729 200.608C127.089 200.229 126.594 199.703 126.246 199.028C125.897 198.35 125.723 197.564 125.723 196.67C125.723 195.769 125.897 194.981 126.246 194.307C126.594 193.629 127.089 193.102 127.729 192.727C128.373 192.348 129.136 192.159 130.018 192.159C130.901 192.159 131.662 192.348 132.303 192.727C132.946 193.102 133.443 193.629 133.791 194.307C134.14 194.981 134.314 195.769 134.314 196.67C134.314 197.564 134.14 198.35 133.791 199.028C133.443 199.703 132.946 200.229 132.303 200.608C131.662 200.983 130.901 201.17 130.018 201.17ZM130.03 199.295C130.431 199.295 130.767 199.182 131.036 198.955C131.304 198.723 131.507 198.409 131.643 198.011C131.784 197.614 131.854 197.161 131.854 196.653C131.854 196.146 131.784 195.693 131.643 195.295C131.507 194.898 131.304 194.583 131.036 194.352C130.767 194.121 130.431 194.006 130.03 194.006C129.625 194.006 129.284 194.121 129.007 194.352C128.734 194.583 128.528 194.898 128.388 195.295C128.251 195.693 128.183 196.146 128.183 196.653C128.183 197.161 128.251 197.614 128.388 198.011C128.528 198.409 128.734 198.723 129.007 198.955C129.284 199.182 129.625 199.295 130.03 199.295ZM135.888 201V192.273H138.234V193.795H138.325C138.484 193.254 138.751 192.845 139.126 192.568C139.501 192.288 139.933 192.148 140.422 192.148C140.543 192.148 140.674 192.155 140.814 192.17C140.954 192.186 141.077 192.206 141.183 192.233V194.381C141.07 194.347 140.912 194.316 140.712 194.29C140.511 194.263 140.327 194.25 140.161 194.25C139.804 194.25 139.486 194.328 139.206 194.483C138.929 194.634 138.71 194.847 138.547 195.119C138.388 195.392 138.308 195.706 138.308 196.062V201H135.888ZM149.696 194.761L147.48 194.898C147.442 194.708 147.361 194.538 147.236 194.386C147.111 194.231 146.946 194.108 146.741 194.017C146.541 193.922 146.3 193.875 146.02 193.875C145.645 193.875 145.329 193.955 145.071 194.114C144.813 194.269 144.685 194.477 144.685 194.739C144.685 194.947 144.768 195.123 144.935 195.267C145.101 195.411 145.387 195.527 145.793 195.614L147.372 195.932C148.221 196.106 148.853 196.386 149.27 196.773C149.687 197.159 149.895 197.667 149.895 198.295C149.895 198.867 149.726 199.369 149.389 199.801C149.056 200.233 148.598 200.57 148.014 200.812C147.435 201.051 146.766 201.17 146.009 201.17C144.853 201.17 143.933 200.93 143.247 200.449C142.565 199.964 142.166 199.305 142.048 198.472L144.429 198.347C144.501 198.699 144.675 198.968 144.952 199.153C145.228 199.335 145.582 199.426 146.014 199.426C146.438 199.426 146.779 199.345 147.037 199.182C147.298 199.015 147.431 198.801 147.435 198.54C147.431 198.32 147.338 198.14 147.156 198C146.974 197.856 146.694 197.746 146.315 197.67L144.804 197.369C143.952 197.199 143.317 196.903 142.901 196.483C142.488 196.062 142.281 195.527 142.281 194.875C142.281 194.314 142.433 193.831 142.736 193.426C143.043 193.021 143.473 192.708 144.026 192.489C144.582 192.269 145.234 192.159 145.98 192.159C147.082 192.159 147.95 192.392 148.582 192.858C149.219 193.324 149.59 193.958 149.696 194.761ZM160.19 188.818L156.44 202.75H154.355L158.105 188.818H160.19ZM175.372 193.438H172.884C172.838 193.116 172.745 192.83 172.605 192.58C172.465 192.326 172.285 192.11 172.065 191.932C171.846 191.754 171.592 191.617 171.304 191.523C171.02 191.428 170.711 191.381 170.378 191.381C169.776 191.381 169.251 191.53 168.804 191.83C168.357 192.125 168.01 192.557 167.764 193.125C167.518 193.689 167.395 194.375 167.395 195.182C167.395 196.011 167.518 196.708 167.764 197.273C168.014 197.837 168.363 198.263 168.81 198.551C169.257 198.839 169.774 198.983 170.361 198.983C170.69 198.983 170.995 198.939 171.276 198.852C171.56 198.765 171.812 198.638 172.031 198.472C172.251 198.301 172.433 198.095 172.577 197.852C172.724 197.61 172.827 197.333 172.884 197.023L175.372 197.034C175.308 197.568 175.147 198.083 174.889 198.58C174.635 199.072 174.293 199.513 173.861 199.903C173.433 200.29 172.921 200.597 172.327 200.824C171.736 201.047 171.067 201.159 170.321 201.159C169.283 201.159 168.355 200.924 167.537 200.455C166.723 199.985 166.079 199.305 165.605 198.415C165.135 197.525 164.901 196.447 164.901 195.182C164.901 193.913 165.139 192.833 165.616 191.943C166.094 191.053 166.741 190.375 167.56 189.909C168.378 189.439 169.298 189.205 170.321 189.205C170.995 189.205 171.62 189.299 172.196 189.489C172.776 189.678 173.289 189.955 173.736 190.318C174.183 190.678 174.546 191.119 174.827 191.642C175.111 192.165 175.293 192.763 175.372 193.438ZM181.034 201.17C180.152 201.17 179.388 200.983 178.744 200.608C178.104 200.229 177.61 199.703 177.261 199.028C176.913 198.35 176.739 197.564 176.739 196.67C176.739 195.769 176.913 194.981 177.261 194.307C177.61 193.629 178.104 193.102 178.744 192.727C179.388 192.348 180.152 192.159 181.034 192.159C181.917 192.159 182.678 192.348 183.318 192.727C183.962 193.102 184.458 193.629 184.807 194.307C185.155 194.981 185.33 195.769 185.33 196.67C185.33 197.564 185.155 198.35 184.807 199.028C184.458 199.703 183.962 200.229 183.318 200.608C182.678 200.983 181.917 201.17 181.034 201.17ZM181.045 199.295C181.447 199.295 181.782 199.182 182.051 198.955C182.32 198.723 182.523 198.409 182.659 198.011C182.799 197.614 182.869 197.161 182.869 196.653C182.869 196.146 182.799 195.693 182.659 195.295C182.523 194.898 182.32 194.583 182.051 194.352C181.782 194.121 181.447 194.006 181.045 194.006C180.64 194.006 180.299 194.121 180.023 194.352C179.75 194.583 179.544 194.898 179.403 195.295C179.267 195.693 179.199 196.146 179.199 196.653C179.199 197.161 179.267 197.614 179.403 198.011C179.544 198.409 179.75 198.723 180.023 198.955C180.299 199.182 180.64 199.295 181.045 199.295ZM189.324 195.955V201H186.903V192.273H189.21V193.812H189.312C189.506 193.305 189.83 192.903 190.284 192.608C190.739 192.309 191.29 192.159 191.938 192.159C192.544 192.159 193.072 192.292 193.523 192.557C193.973 192.822 194.324 193.201 194.574 193.693C194.824 194.182 194.949 194.765 194.949 195.443V201H192.528V195.875C192.532 195.341 192.396 194.924 192.119 194.625C191.843 194.322 191.462 194.17 190.977 194.17C190.652 194.17 190.364 194.241 190.114 194.381C189.867 194.521 189.674 194.725 189.534 194.994C189.398 195.259 189.328 195.58 189.324 195.955ZM201.499 192.273V194.091H196.243V192.273H201.499ZM197.436 190.182H199.857V198.318C199.857 198.542 199.891 198.716 199.959 198.841C200.027 198.962 200.122 199.047 200.243 199.097C200.368 199.146 200.512 199.17 200.675 199.17C200.788 199.17 200.902 199.161 201.016 199.142C201.129 199.119 201.216 199.102 201.277 199.091L201.658 200.892C201.536 200.93 201.366 200.973 201.146 201.023C200.927 201.076 200.66 201.108 200.345 201.119C199.762 201.142 199.25 201.064 198.811 200.886C198.375 200.708 198.036 200.432 197.794 200.057C197.552 199.682 197.432 199.208 197.436 198.636V190.182ZM203.075 201V192.273H205.422V193.795H205.513C205.672 193.254 205.939 192.845 206.314 192.568C206.689 192.288 207.121 192.148 207.609 192.148C207.731 192.148 207.861 192.155 208.001 192.17C208.142 192.186 208.265 192.206 208.371 192.233V194.381C208.257 194.347 208.1 194.316 207.899 194.29C207.698 194.263 207.515 194.25 207.348 194.25C206.992 194.25 206.674 194.328 206.393 194.483C206.117 194.634 205.897 194.847 205.734 195.119C205.575 195.392 205.496 195.706 205.496 196.062V201H203.075ZM211.861 201.165C211.304 201.165 210.808 201.068 210.372 200.875C209.937 200.678 209.592 200.388 209.338 200.006C209.088 199.619 208.963 199.138 208.963 198.562C208.963 198.078 209.052 197.67 209.23 197.341C209.408 197.011 209.651 196.746 209.957 196.545C210.264 196.345 210.613 196.193 211.003 196.091C211.397 195.989 211.81 195.917 212.241 195.875C212.749 195.822 213.158 195.773 213.469 195.727C213.779 195.678 214.005 195.606 214.145 195.511C214.285 195.417 214.355 195.277 214.355 195.091V195.057C214.355 194.697 214.241 194.419 214.014 194.222C213.791 194.025 213.473 193.926 213.06 193.926C212.624 193.926 212.277 194.023 212.02 194.216C211.762 194.405 211.592 194.644 211.509 194.932L209.27 194.75C209.384 194.22 209.607 193.761 209.94 193.375C210.274 192.985 210.704 192.686 211.23 192.477C211.76 192.265 212.374 192.159 213.071 192.159C213.556 192.159 214.02 192.216 214.463 192.33C214.91 192.443 215.306 192.619 215.651 192.858C215.999 193.097 216.274 193.403 216.474 193.778C216.675 194.15 216.776 194.595 216.776 195.114V201H214.48V199.79H214.412C214.272 200.062 214.084 200.303 213.849 200.511C213.615 200.716 213.332 200.877 213.003 200.994C212.673 201.108 212.293 201.165 211.861 201.165ZM212.554 199.494C212.91 199.494 213.224 199.424 213.497 199.284C213.77 199.14 213.984 198.947 214.139 198.705C214.295 198.462 214.372 198.187 214.372 197.881V196.955C214.296 197.004 214.192 197.049 214.06 197.091C213.931 197.129 213.785 197.165 213.622 197.199C213.459 197.229 213.296 197.258 213.134 197.284C212.971 197.307 212.823 197.328 212.69 197.347C212.406 197.388 212.158 197.455 211.946 197.545C211.734 197.636 211.569 197.759 211.452 197.915C211.334 198.066 211.276 198.256 211.276 198.483C211.276 198.812 211.395 199.064 211.634 199.239C211.876 199.409 212.183 199.494 212.554 199.494ZM222.597 201.17C221.703 201.17 220.934 200.981 220.29 200.602C219.65 200.22 219.157 199.689 218.812 199.011C218.472 198.333 218.301 197.553 218.301 196.67C218.301 195.777 218.473 194.992 218.818 194.318C219.167 193.64 219.661 193.112 220.301 192.733C220.941 192.35 221.703 192.159 222.585 192.159C223.347 192.159 224.013 192.297 224.585 192.574C225.157 192.85 225.61 193.239 225.943 193.739C226.277 194.239 226.46 194.826 226.494 195.5H224.21C224.146 195.064 223.975 194.714 223.699 194.449C223.426 194.18 223.068 194.045 222.625 194.045C222.25 194.045 221.922 194.148 221.642 194.352C221.366 194.553 221.15 194.847 220.994 195.233C220.839 195.619 220.761 196.087 220.761 196.636C220.761 197.193 220.837 197.667 220.989 198.057C221.144 198.447 221.362 198.744 221.642 198.949C221.922 199.153 222.25 199.256 222.625 199.256C222.902 199.256 223.15 199.199 223.369 199.085C223.593 198.972 223.777 198.807 223.92 198.591C224.068 198.371 224.165 198.108 224.21 197.801H226.494C226.456 198.468 226.275 199.055 225.949 199.562C225.627 200.066 225.182 200.46 224.614 200.744C224.045 201.028 223.373 201.17 222.597 201.17ZM232.686 192.273V194.091H227.43V192.273H232.686ZM228.624 190.182H231.044V198.318C231.044 198.542 231.078 198.716 231.146 198.841C231.214 198.962 231.309 199.047 231.43 199.097C231.555 199.146 231.699 199.17 231.862 199.17C231.976 199.17 232.089 199.161 232.203 199.142C232.317 199.119 232.404 199.102 232.464 199.091L232.845 200.892C232.724 200.93 232.554 200.973 232.334 201.023C232.114 201.076 231.847 201.108 231.533 201.119C230.949 201.142 230.438 201.064 229.999 200.886C229.563 200.708 229.224 200.432 228.982 200.057C228.739 199.682 228.62 199.208 228.624 198.636V190.182ZM241.415 194.761L239.199 194.898C239.161 194.708 239.08 194.538 238.955 194.386C238.83 194.231 238.665 194.108 238.46 194.017C238.259 193.922 238.019 193.875 237.739 193.875C237.364 193.875 237.047 193.955 236.79 194.114C236.532 194.269 236.403 194.477 236.403 194.739C236.403 194.947 236.487 195.123 236.653 195.267C236.82 195.411 237.106 195.527 237.511 195.614L239.091 195.932C239.939 196.106 240.572 196.386 240.989 196.773C241.405 197.159 241.614 197.667 241.614 198.295C241.614 198.867 241.445 199.369 241.108 199.801C240.775 200.233 240.316 200.57 239.733 200.812C239.153 201.051 238.485 201.17 237.727 201.17C236.572 201.17 235.652 200.93 234.966 200.449C234.284 199.964 233.884 199.305 233.767 198.472L236.148 198.347C236.22 198.699 236.394 198.968 236.67 199.153C236.947 199.335 237.301 199.426 237.733 199.426C238.157 199.426 238.498 199.345 238.756 199.182C239.017 199.015 239.15 198.801 239.153 198.54C239.15 198.32 239.057 198.14 238.875 198C238.693 197.856 238.413 197.746 238.034 197.67L236.523 197.369C235.67 197.199 235.036 196.903 234.619 196.483C234.206 196.062 234 195.527 234 194.875C234 194.314 234.152 193.831 234.455 193.426C234.761 193.021 235.191 192.708 235.744 192.489C236.301 192.269 236.953 192.159 237.699 192.159C238.801 192.159 239.669 192.392 240.301 192.858C240.938 193.324 241.309 193.958 241.415 194.761Z" fill="#00164F"/>
<path fill-rule="evenodd" clip-rule="evenodd" d="M169.466 63.2273C171.008 61.4177 172.051 59.2 171.877 56.7149C171.375 49.5549 161.408 51.13 159.469 54.7438C157.53 58.3576 157.76 67.5242 160.266 68.17C161.265 68.4276 163.394 67.7967 165.561 66.4908L164.201 76.1116H172.23L169.466 63.2273Z" fill="#B28B67"/>
<path fill-rule="evenodd" clip-rule="evenodd" d="M155.912 49.7341C156.078 49.1496 156.525 48.6492 157.128 48.5007C157.274 48.4647 157.425 48.4502 157.575 48.4562C157.629 48.4584 157.644 48.4739 157.67 48.4362C157.688 48.4082 157.689 48.3399 157.696 48.307C157.72 48.2048 157.75 48.1039 157.787 48.0055C157.913 47.6702 158.125 47.3734 158.381 47.1234C158.859 46.6556 159.504 46.3328 160.175 46.2744C160.542 46.2425 160.907 46.3021 161.254 46.4216C161.434 46.4834 161.608 46.5604 161.778 46.6455C161.829 46.6711 161.995 46.7966 162.046 46.7885C162.103 46.7795 162.216 46.6388 162.262 46.6034C162.832 46.1667 163.535 45.995 164.244 46.0001C165.044 46.0061 165.815 46.0461 166.482 46.534C166.623 46.6373 166.758 46.7504 166.886 46.8694C166.953 46.9321 167.019 46.9972 167.081 47.0649C167.119 47.1058 167.155 47.1476 167.191 47.1905C167.25 47.2633 167.241 47.2872 167.325 47.2364C167.646 47.0413 168.018 46.95 168.393 46.9961C168.616 47.0234 168.832 47.0903 169.038 47.1783C169.108 47.2082 169.27 47.3277 169.345 47.3288C169.419 47.33 169.578 47.2192 169.655 47.1911C170.067 47.039 170.511 47.0015 170.944 47.0718C171.39 47.1443 171.829 47.3225 172.207 47.5687C172.389 47.6872 172.548 47.8184 172.676 47.9946C172.731 48.0706 172.781 48.151 172.843 48.2216C172.88 48.2628 172.952 48.3052 172.972 48.3575C172.96 48.3262 173.46 48.1333 173.507 48.121C173.759 48.0553 174.015 48.0687 174.261 48.1497C174.724 48.3021 175.122 48.6438 175.449 48.9941C175.618 49.1741 175.765 49.373 175.89 49.5849C175.949 49.6864 176.004 49.7908 176.054 49.8974C176.078 49.9491 176.094 50.0137 176.126 50.0603C176.168 50.1202 176.195 50.1214 176.27 50.1475C176.649 50.2803 176.994 50.505 177.257 50.8086C177.523 51.1158 177.696 51.4941 177.768 51.8925C177.773 51.9159 177.775 52.0132 177.789 52.0259C177.808 52.0434 177.884 52.0356 177.913 52.039C178.013 52.0507 178.112 52.0682 178.21 52.0913C178.39 52.134 178.565 52.1968 178.731 52.2789C179.378 52.5991 179.841 53.1993 180.068 53.8746C180.305 54.5834 180.301 55.3954 180.017 56.091C179.971 56.2033 179.917 56.3124 179.852 56.4155C179.813 56.4789 179.8 56.479 179.826 56.5455C179.854 56.6194 179.907 56.6912 179.94 56.7634C180.051 56.9991 180.128 57.2491 180.177 57.5044C180.257 57.9232 180.296 58.3633 180.217 58.7853C180.181 58.9813 180.117 59.1728 180.02 59.3473C179.97 59.4363 179.912 59.5207 179.846 59.5988C179.812 59.6393 179.776 59.678 179.738 59.7151C179.717 59.7363 179.688 59.7549 179.67 59.7785C179.625 59.8362 179.615 59.7888 179.639 59.8735C179.671 59.992 179.744 60.1088 179.789 60.2241C179.836 60.3429 179.877 60.4633 179.916 60.5849C179.993 60.8311 180.059 61.0818 180.1 61.3368C180.179 61.8263 180.165 62.348 179.933 62.7973C179.834 62.9895 179.692 63.158 179.52 63.2892C179.436 63.3534 179.344 63.4087 179.248 63.4541C179.199 63.4774 179.136 63.4875 179.114 63.5351C179.09 63.5863 179.126 63.6879 179.134 63.7452C179.205 64.2431 179.241 64.7659 179.093 65.2539C178.956 65.7033 178.656 66.1001 178.266 66.3628C177.51 66.8725 176.491 66.8437 175.697 66.4357C175.49 66.3294 175.296 66.1973 175.123 66.0416C174.683 66.6339 173.778 66.6152 173.135 66.4464C172.334 66.2361 171.691 65.679 171.32 64.947C170.814 65.5636 169.751 65.3635 169.399 64.6946C169.313 64.5309 169.262 64.3504 169.237 64.1679C169.224 64.0718 169.233 63.975 169.223 63.8797C169.21 63.7584 169.129 63.6404 169.082 63.523C168.992 63.2945 168.935 63.0584 168.933 62.812C168.932 62.6833 168.948 62.5579 168.96 62.4302C168.971 62.3153 168.939 62.2082 168.921 62.0948C169.127 62.1286 169.377 62.0732 169.571 62.0136C169.761 61.9552 169.938 61.8012 170.073 61.6605C170.384 61.3339 170.574 60.9058 170.704 60.4797C170.99 59.5445 170.873 58.4224 169.932 57.9092C169.494 57.6701 168.181 57.6709 167.659 57.789C167.11 57.9133 166.488 59.1242 166.458 59.238C166.439 59.3084 166.448 59.3956 166.383 59.4426C166.241 59.5458 166.007 59.3667 165.902 59.2783C165.721 59.1257 165.592 58.9227 165.48 58.717C165.236 58.2688 165.04 57.7881 164.901 57.2974C164.794 56.9191 164.726 56.529 164.586 56.1603C164.447 55.7934 164.227 55.4656 163.886 55.2577C163.515 55.0317 163.09 54.9126 162.683 54.7705C162.279 54.6297 161.883 54.4577 161.57 54.1589C161.501 54.0932 161.434 54.0234 161.379 53.9461C161.335 53.885 161.292 53.7681 161.225 53.7294C161.122 53.6692 160.971 53.8258 160.881 53.8826C160.439 54.1632 160.071 54.5545 159.773 54.982C159.478 55.4072 159.235 55.8163 159.038 56.291C158.892 56.6431 158.801 57.0941 158.543 57.3826C158.429 57.5115 157.575 57.5894 157.299 57.4769C157.022 57.3644 156.713 57.0724 156.62 56.8893C156.525 56.702 156.502 56.4962 156.543 56.291C156.567 56.1704 156.615 56.0577 156.642 55.9391C156.665 55.8396 156.685 55.7455 156.733 55.6543C156.825 55.4814 156.982 55.3572 157.171 55.3053C156.974 55.1237 156.811 54.9065 156.698 54.6637C156.581 54.4115 156.482 54.1047 156.453 53.8279C156.431 53.603 156.466 53.3701 156.589 53.1768C156.718 52.9741 156.947 52.8419 157.145 52.7154C156.842 52.4789 156.584 52.1912 156.371 51.8727C155.957 51.2533 155.701 50.4725 155.912 49.7341Z" fill="#191847"/>
<path fill-rule="evenodd" clip-rule="evenodd" d="M194.647 117.933H156.171C153.215 117.933 150.818 120.33 150.818 123.286V154.067C150.818 157.024 153.215 159.42 156.171 159.42H194.647C197.603 159.42 200 157.024 200 154.067V123.286C200 120.33 197.603 117.933 194.647 117.933ZM189.294 127.301C190.033 127.301 190.632 127.9 190.632 128.64V148.714C190.632 149.453 190.033 150.052 189.294 150.052H161.524C160.785 150.052 160.186 149.453 160.186 148.714V128.64C160.186 127.9 160.785 127.301 161.524 127.301H189.294Z" fill="#C5CFD6"/>
<path fill-rule="evenodd" clip-rule="evenodd" d="M126.893 158.303C131.18 148.815 134.28 140.553 135.524 136.194C137.655 128.731 139.276 122.163 139.685 119.711C140.662 113.862 132.17 113.522 131.048 116.428C129.349 120.827 126.383 135.282 122.819 157.114L126.893 158.303ZM176.617 128.527C172.684 126.972 158.91 122.107 152.267 120.731C150.358 120.335 148.508 119.968 146.769 119.636C141.598 118.649 138.919 127.976 143.899 128.693C156.301 130.478 173.882 132.321 175.387 132.528C177.496 132.818 179.089 129.504 176.617 128.527Z" fill="#B28B67"/>
<path fill-rule="evenodd" clip-rule="evenodd" d="M143.595 117.069L164.87 106.239V103.881H162.34C141.758 109.126 131.24 112.487 130.787 113.964C130.783 113.98 130.778 113.996 130.774 114.012C130.764 114.026 130.753 114.039 130.743 114.053C126.665 119.663 124.222 147.05 123.42 149.101L131.236 150.267C134.226 139.18 143.792 131.456 143.538 118.177C143.606 117.788 143.624 117.418 143.595 117.069Z" fill="#1F28CF"/>
<path fill-rule="evenodd" clip-rule="evenodd" d="M163.102 123.501C165.049 123.111 166.841 122.763 168.375 122.494C178.283 120.756 181.172 115.453 179.464 103.881H161.209C158.227 104.738 142.73 111.237 134.689 114.693C129.367 116.981 131.045 125.228 134.059 127.375C134.075 127.506 134.129 127.596 134.226 127.636C150.437 134.355 163.262 130.829 167.546 131.956L169.528 125.705L163.102 123.501Z" fill="#2B44FF"/>
<path fill-rule="evenodd" clip-rule="evenodd" d="M175.273 127.533C176.335 127.635 177.089 127.794 177.535 128.012C178.077 128.276 178.824 128.753 179.776 129.441C179.469 130.07 176.712 135.723 171.504 146.401C169.832 146.132 169.169 145.493 169.516 144.487C169.863 143.481 170.143 142.641 170.356 141.967L170.686 132.37C170.693 132.185 170.848 132.041 171.032 132.047C171.035 132.047 171.039 132.047 171.042 132.047L172.518 132.14C173.357 131.461 173.911 130.847 174.179 130.297C174.396 129.851 174.517 129.146 174.54 128.183L174.54 128.183C174.549 127.814 174.855 127.522 175.225 127.53C175.241 127.531 175.257 127.532 175.273 127.533Z" fill="#E4E4E4"/>
<path fill-rule="evenodd" clip-rule="evenodd" d="M128.844 156.544C129.218 157.543 129.405 158.29 129.405 158.786C129.405 159.39 129.305 160.27 129.104 161.428C128.404 161.428 122.114 161.428 110.233 161.428C109.743 159.806 110.026 158.931 111.082 158.802C112.139 158.673 113.017 158.556 113.715 158.452L122.486 154.542C122.655 154.467 122.853 154.542 122.928 154.711C122.929 154.714 122.931 154.717 122.932 154.72L123.496 156.087C124.474 156.544 125.268 156.772 125.88 156.772C126.377 156.772 127.063 156.571 127.938 156.17L127.938 156.17C128.274 156.016 128.671 156.163 128.825 156.499C128.832 156.514 128.838 156.529 128.844 156.544Z" fill="#E4E4E4"/>
<path fill-rule="evenodd" clip-rule="evenodd" d="M145.45 98.569L135.972 107.815C133.214 108.991 130.955 110.29 129.194 111.711C128.797 112.189 128.366 113.105 130.23 112.695C132.094 112.285 134.072 111.938 134.423 112.544C134.773 113.15 133.741 114.079 134.388 114.872C134.82 115.401 136.271 113.719 138.742 109.826L148.598 104.016L145.45 98.569ZM187.518 99.8729L180.526 99.9004C184.843 113.837 187.174 121.231 187.518 122.084C188.292 124.002 186.654 126.924 185.953 128.495C188.235 129.516 187.992 125.734 190.87 127.074C193.498 128.296 195.496 130.511 198.532 128.638C198.905 128.407 199.314 127.54 198.326 126.863C195.864 125.175 192.317 122.221 191.837 121.248C191.184 119.922 189.744 112.797 187.518 99.8729Z" fill="#B28B67"/>
<path fill-rule="evenodd" clip-rule="evenodd" d="M167.649 70.535L164.755 70.0388C159.775 82.4816 151.078 93.7875 138.667 103.956L148.046 115.351C160.456 100.872 168.105 85.933 167.649 70.535Z" fill="#191847"/>
<path fill-rule="evenodd" clip-rule="evenodd" d="M180.26 106.892H154.498C160.467 92.3803 163.451 80.0525 163.451 69.9089L171.222 68.751C177.329 78.5736 179.054 90.6671 180.26 106.892Z" fill="#DDE3E9"/>
<path fill-rule="evenodd" clip-rule="evenodd" d="M171.386 68.7565C171.385 68.7547 171.384 68.7529 171.383 68.751H170.876C170.269 68.7719 169.345 68.8096 168.103 68.864L166.225 74.2303C166.026 80.773 164.866 93.9584 162.745 113.786H179.632C179.588 115.156 179.515 116.538 179.414 117.933H191.97C190.092 96.7427 183.233 80.3486 171.393 68.751L171.386 68.7565V68.7565Z" fill="#2F3676"/>
<path fill-rule="evenodd" clip-rule="evenodd" d="M178.517 96.264C178.037 104.801 176.833 110.685 174.907 113.918H179.628C179.835 107.777 179.465 101.892 178.517 96.264V96.264Z" fill="black" fill-opacity="0.1"/>
<path fill-rule="evenodd" clip-rule="evenodd" d="M175.874 103.547L167.547 99.6753V103.547H175.874Z" fill="white" fill-opacity="0.2"/>
</g>
<defs>
<filter id="filter0_d_529_826" x="0" y="0" width="310" height="284" filterUnits="userSpaceOnUse" color-interpolation-filters="sRGB">
<feFlood flood-opacity="0" result="BackgroundImageFix"/>
<feColorMatrix in="SourceAlpha" type="matrix" values="0 0 0 0 0 0 0 0 0 0 0 0 0 0 0 0 0 0 127 0" result="hardAlpha"/>
<feOffset dy="4"/>
<feGaussianBlur stdDeviation="2"/>
<feComposite in2="hardAlpha" operator="out"/>
<feColorMatrix type="matrix" values="0 0 0 0 0 0 0 0 0 0 0 0 0 0 0 0 0 0 0.25 0"/>
<feBlend mode="normal" in2="BackgroundImageFix" result="effect1_dropShadow_529_826"/>
<feBlend mode="normal" in="SourceGraphic" in2="effect1_dropShadow_529_826" result="shape"/>
</filter>
</defs>
</svg>
