<svg width="310" height="284" viewBox="0 0 310 284" fill="none" xmlns="http://www.w3.org/2000/svg">
<g filter="url(#filter0_d_547_845)">
<rect x="4" width="302" height="276" rx="16" fill="white" shape-rendering="crispEdges"/>
<path d="M101.017 196H98.3807L102.398 184.364H105.568L109.58 196H106.943L104.028 187.023H103.938L101.017 196ZM100.852 191.426H107.08V193.347H100.852V191.426ZM113.744 196.142C113.081 196.142 112.481 195.972 111.943 195.631C111.409 195.286 110.985 194.78 110.67 194.114C110.36 193.443 110.205 192.621 110.205 191.648C110.205 190.648 110.366 189.816 110.688 189.153C111.009 188.487 111.438 187.989 111.972 187.659C112.509 187.326 113.098 187.159 113.739 187.159C114.227 187.159 114.634 187.242 114.96 187.409C115.29 187.572 115.555 187.777 115.756 188.023C115.96 188.265 116.116 188.504 116.222 188.739H116.295V184.364H118.71V196H116.324V194.602H116.222C116.108 194.845 115.947 195.085 115.739 195.324C115.534 195.559 115.267 195.754 114.938 195.909C114.612 196.064 114.214 196.142 113.744 196.142ZM114.511 194.216C114.902 194.216 115.231 194.11 115.5 193.898C115.773 193.682 115.981 193.381 116.125 192.994C116.273 192.608 116.347 192.155 116.347 191.636C116.347 191.117 116.275 190.667 116.131 190.284C115.987 189.902 115.778 189.606 115.506 189.398C115.233 189.189 114.902 189.085 114.511 189.085C114.114 189.085 113.778 189.193 113.506 189.409C113.233 189.625 113.027 189.924 112.886 190.307C112.746 190.689 112.676 191.133 112.676 191.636C112.676 192.144 112.746 192.593 112.886 192.983C113.03 193.369 113.237 193.672 113.506 193.892C113.778 194.108 114.114 194.216 114.511 194.216ZM120.7 196V187.273H123.007V188.812H123.109C123.291 188.301 123.594 187.898 124.018 187.602C124.443 187.307 124.95 187.159 125.541 187.159C126.14 187.159 126.649 187.309 127.07 187.608C127.49 187.903 127.77 188.305 127.911 188.812H128.001C128.179 188.312 128.501 187.913 128.967 187.614C129.437 187.311 129.992 187.159 130.632 187.159C131.446 187.159 132.107 187.419 132.615 187.938C133.126 188.453 133.382 189.184 133.382 190.131V196H130.967V190.608C130.967 190.123 130.839 189.759 130.581 189.517C130.323 189.275 130.001 189.153 129.615 189.153C129.176 189.153 128.833 189.294 128.587 189.574C128.34 189.85 128.217 190.216 128.217 190.67V196H125.871V190.557C125.871 190.129 125.748 189.788 125.501 189.534C125.259 189.28 124.939 189.153 124.541 189.153C124.272 189.153 124.03 189.222 123.814 189.358C123.602 189.491 123.433 189.678 123.308 189.92C123.183 190.159 123.121 190.439 123.121 190.761V196H120.7ZM135.294 196V187.273H137.714V196H135.294ZM136.51 186.148C136.15 186.148 135.841 186.028 135.584 185.79C135.33 185.547 135.203 185.258 135.203 184.92C135.203 184.587 135.33 184.301 135.584 184.062C135.841 183.82 136.15 183.699 136.51 183.699C136.87 183.699 137.177 183.82 137.43 184.062C137.688 184.301 137.817 184.587 137.817 184.92C137.817 185.258 137.688 185.547 137.43 185.79C137.177 186.028 136.87 186.148 136.51 186.148ZM142.074 190.955V196H139.653V187.273H141.96V188.812H142.062C142.256 188.305 142.58 187.903 143.034 187.608C143.489 187.309 144.04 187.159 144.688 187.159C145.294 187.159 145.822 187.292 146.273 187.557C146.723 187.822 147.074 188.201 147.324 188.693C147.574 189.182 147.699 189.765 147.699 190.443V196H145.278V190.875C145.282 190.341 145.146 189.924 144.869 189.625C144.593 189.322 144.212 189.17 143.727 189.17C143.402 189.17 143.114 189.241 142.864 189.381C142.617 189.521 142.424 189.725 142.284 189.994C142.148 190.259 142.078 190.58 142.074 190.955ZM158.378 183.818L154.628 197.75H152.543L156.293 183.818H158.378ZM169.605 187.71C169.56 187.252 169.365 186.896 169.02 186.642C168.675 186.388 168.207 186.261 167.616 186.261C167.215 186.261 166.876 186.318 166.599 186.432C166.323 186.542 166.111 186.695 165.963 186.892C165.819 187.089 165.747 187.312 165.747 187.562C165.74 187.771 165.783 187.953 165.878 188.108C165.976 188.263 166.111 188.398 166.281 188.511C166.452 188.621 166.649 188.718 166.872 188.801C167.096 188.881 167.334 188.949 167.588 189.006L168.634 189.256C169.141 189.369 169.607 189.521 170.031 189.71C170.455 189.9 170.823 190.133 171.134 190.409C171.444 190.686 171.685 191.011 171.855 191.386C172.029 191.761 172.118 192.191 172.122 192.676C172.118 193.388 171.937 194.006 171.577 194.528C171.221 195.047 170.705 195.451 170.031 195.739C169.361 196.023 168.552 196.165 167.605 196.165C166.666 196.165 165.848 196.021 165.151 195.733C164.457 195.445 163.916 195.019 163.526 194.455C163.139 193.886 162.937 193.184 162.918 192.347H165.298C165.325 192.737 165.437 193.062 165.634 193.324C165.834 193.581 166.101 193.777 166.435 193.909C166.772 194.038 167.152 194.102 167.577 194.102C167.993 194.102 168.355 194.042 168.662 193.92C168.973 193.799 169.213 193.631 169.384 193.415C169.554 193.199 169.639 192.951 169.639 192.67C169.639 192.409 169.562 192.189 169.406 192.011C169.255 191.833 169.031 191.682 168.736 191.557C168.444 191.432 168.086 191.318 167.662 191.216L166.395 190.898C165.414 190.659 164.639 190.286 164.071 189.778C163.503 189.271 163.221 188.587 163.224 187.727C163.221 187.023 163.408 186.407 163.787 185.881C164.17 185.354 164.694 184.943 165.361 184.648C166.027 184.352 166.785 184.205 167.634 184.205C168.497 184.205 169.251 184.352 169.895 184.648C170.543 184.943 171.046 185.354 171.406 185.881C171.766 186.407 171.952 187.017 171.963 187.71H169.605ZM178.374 187.273V189.091H173.118V187.273H178.374ZM174.311 185.182H176.732V193.318C176.732 193.542 176.766 193.716 176.834 193.841C176.902 193.962 176.997 194.047 177.118 194.097C177.243 194.146 177.387 194.17 177.55 194.17C177.663 194.17 177.777 194.161 177.891 194.142C178.004 194.119 178.091 194.102 178.152 194.091L178.533 195.892C178.411 195.93 178.241 195.973 178.021 196.023C177.802 196.076 177.535 196.108 177.22 196.119C176.637 196.142 176.125 196.064 175.686 195.886C175.25 195.708 174.911 195.432 174.669 195.057C174.427 194.682 174.307 194.208 174.311 193.636V185.182ZM182.439 196.165C181.882 196.165 181.386 196.068 180.95 195.875C180.515 195.678 180.17 195.388 179.916 195.006C179.666 194.619 179.541 194.138 179.541 193.562C179.541 193.078 179.63 192.67 179.808 192.341C179.986 192.011 180.229 191.746 180.536 191.545C180.842 191.345 181.191 191.193 181.581 191.091C181.975 190.989 182.388 190.917 182.82 190.875C183.327 190.822 183.736 190.773 184.047 190.727C184.357 190.678 184.583 190.606 184.723 190.511C184.863 190.417 184.933 190.277 184.933 190.091V190.057C184.933 189.697 184.82 189.419 184.592 189.222C184.369 189.025 184.051 188.926 183.638 188.926C183.202 188.926 182.856 189.023 182.598 189.216C182.34 189.405 182.17 189.644 182.087 189.932L179.848 189.75C179.962 189.22 180.185 188.761 180.518 188.375C180.852 187.985 181.282 187.686 181.808 187.477C182.339 187.265 182.952 187.159 183.649 187.159C184.134 187.159 184.598 187.216 185.041 187.33C185.488 187.443 185.884 187.619 186.229 187.858C186.577 188.097 186.852 188.403 187.053 188.778C187.253 189.15 187.354 189.595 187.354 190.114V196H185.058V194.79H184.99C184.85 195.062 184.662 195.303 184.428 195.511C184.193 195.716 183.911 195.877 183.581 195.994C183.251 196.108 182.871 196.165 182.439 196.165ZM183.132 194.494C183.488 194.494 183.803 194.424 184.075 194.284C184.348 194.14 184.562 193.947 184.717 193.705C184.873 193.462 184.95 193.187 184.95 192.881V191.955C184.875 192.004 184.77 192.049 184.638 192.091C184.509 192.129 184.363 192.165 184.2 192.199C184.037 192.229 183.875 192.258 183.712 192.284C183.549 192.307 183.401 192.328 183.268 192.347C182.984 192.388 182.736 192.455 182.524 192.545C182.312 192.636 182.147 192.759 182.03 192.915C181.912 193.066 181.854 193.256 181.854 193.483C181.854 193.812 181.973 194.064 182.212 194.239C182.454 194.409 182.761 194.494 183.132 194.494ZM193.925 187.273V189.091H188.538V187.273H193.925ZM189.771 196V186.642C189.771 186.009 189.894 185.485 190.141 185.068C190.391 184.652 190.732 184.339 191.163 184.131C191.595 183.922 192.086 183.818 192.635 183.818C193.006 183.818 193.345 183.847 193.652 183.903C193.963 183.96 194.194 184.011 194.345 184.057L193.913 185.875C193.819 185.845 193.701 185.816 193.561 185.79C193.425 185.763 193.285 185.75 193.141 185.75C192.785 185.75 192.536 185.833 192.396 186C192.256 186.163 192.186 186.392 192.186 186.688V196H189.771ZM200.097 187.273V189.091H194.71V187.273H200.097ZM195.943 196V186.642C195.943 186.009 196.066 185.485 196.312 185.068C196.562 184.652 196.903 184.339 197.335 184.131C197.767 183.922 198.258 183.818 198.807 183.818C199.178 183.818 199.517 183.847 199.824 183.903C200.134 183.96 200.366 184.011 200.517 184.057L200.085 185.875C199.991 185.845 199.873 185.816 199.733 185.79C199.597 185.763 199.456 185.75 199.312 185.75C198.956 185.75 198.708 185.833 198.568 186C198.428 186.163 198.358 186.392 198.358 186.688V196H195.943Z" fill="#00164F"/>
<path fill-rule="evenodd" clip-rule="evenodd" d="M160.466 63.2273C162.008 61.4177 163.051 59.2 162.877 56.7149C162.375 49.5549 152.408 51.13 150.469 54.7438C148.53 58.3576 148.76 67.5242 151.266 68.17C152.265 68.4276 154.394 67.7967 156.561 66.4908L155.201 76.1116H163.23L160.466 63.2273Z" fill="#B28B67"/>
<path fill-rule="evenodd" clip-rule="evenodd" d="M146.912 49.7341C147.078 49.1496 147.525 48.6492 148.128 48.5007C148.274 48.4647 148.425 48.4502 148.575 48.4562C148.629 48.4584 148.644 48.4739 148.67 48.4362C148.688 48.4082 148.689 48.3399 148.696 48.307C148.72 48.2048 148.75 48.1039 148.787 48.0055C148.913 47.6702 149.125 47.3734 149.381 47.1234C149.859 46.6556 150.504 46.3328 151.175 46.2744C151.542 46.2425 151.907 46.3021 152.254 46.4216C152.434 46.4834 152.608 46.5604 152.778 46.6455C152.829 46.6711 152.995 46.7966 153.046 46.7885C153.103 46.7795 153.216 46.6388 153.262 46.6034C153.832 46.1667 154.535 45.995 155.244 46.0001C156.044 46.0061 156.815 46.0461 157.482 46.534C157.623 46.6373 157.758 46.7504 157.886 46.8694C157.953 46.9321 158.019 46.9972 158.081 47.0649C158.119 47.1058 158.155 47.1476 158.191 47.1905C158.25 47.2633 158.241 47.2872 158.325 47.2364C158.646 47.0413 159.018 46.95 159.393 46.9961C159.616 47.0234 159.832 47.0903 160.038 47.1783C160.108 47.2082 160.27 47.3277 160.345 47.3288C160.419 47.33 160.578 47.2192 160.655 47.1911C161.067 47.039 161.511 47.0015 161.944 47.0718C162.39 47.1443 162.829 47.3225 163.207 47.5687C163.389 47.6872 163.548 47.8184 163.676 47.9946C163.731 48.0706 163.781 48.151 163.843 48.2216C163.88 48.2628 163.952 48.3052 163.972 48.3575C163.96 48.3262 164.46 48.1333 164.507 48.121C164.759 48.0553 165.015 48.0687 165.261 48.1497C165.724 48.3021 166.122 48.6438 166.449 48.9941C166.618 49.1741 166.765 49.373 166.89 49.5849C166.949 49.6864 167.004 49.7908 167.054 49.8974C167.078 49.9491 167.094 50.0137 167.126 50.0603C167.168 50.1202 167.195 50.1214 167.27 50.1475C167.649 50.2803 167.994 50.505 168.257 50.8086C168.523 51.1158 168.696 51.4941 168.768 51.8925C168.773 51.9159 168.775 52.0132 168.789 52.0259C168.808 52.0434 168.884 52.0356 168.913 52.039C169.013 52.0507 169.112 52.0682 169.21 52.0913C169.39 52.134 169.565 52.1968 169.731 52.2789C170.378 52.5991 170.841 53.1993 171.068 53.8746C171.305 54.5834 171.301 55.3954 171.017 56.091C170.971 56.2033 170.917 56.3124 170.852 56.4155C170.813 56.4789 170.8 56.479 170.826 56.5455C170.854 56.6194 170.907 56.6912 170.94 56.7634C171.051 56.9991 171.128 57.2491 171.177 57.5044C171.257 57.9232 171.296 58.3633 171.217 58.7853C171.181 58.9813 171.117 59.1728 171.02 59.3473C170.97 59.4363 170.912 59.5207 170.846 59.5988C170.812 59.6393 170.776 59.678 170.738 59.7151C170.717 59.7363 170.688 59.7549 170.67 59.7785C170.625 59.8362 170.615 59.7888 170.639 59.8735C170.671 59.992 170.744 60.1088 170.789 60.2241C170.836 60.3429 170.877 60.4633 170.916 60.5849C170.993 60.8311 171.059 61.0818 171.1 61.3368C171.179 61.8263 171.165 62.348 170.933 62.7973C170.834 62.9895 170.692 63.158 170.52 63.2892C170.436 63.3534 170.344 63.4087 170.248 63.4541C170.199 63.4774 170.136 63.4875 170.114 63.5351C170.09 63.5863 170.126 63.6879 170.134 63.7452C170.205 64.2431 170.241 64.7659 170.093 65.2539C169.956 65.7033 169.656 66.1001 169.266 66.3628C168.51 66.8725 167.491 66.8437 166.697 66.4357C166.49 66.3294 166.296 66.1973 166.123 66.0416C165.683 66.6339 164.778 66.6152 164.135 66.4464C163.334 66.2361 162.691 65.679 162.32 64.947C161.814 65.5636 160.751 65.3635 160.399 64.6946C160.313 64.5309 160.262 64.3504 160.237 64.1679C160.224 64.0718 160.233 63.975 160.223 63.8797C160.21 63.7584 160.129 63.6404 160.082 63.523C159.992 63.2945 159.935 63.0584 159.933 62.812C159.932 62.6833 159.948 62.5579 159.96 62.4302C159.971 62.3153 159.939 62.2082 159.921 62.0948C160.127 62.1286 160.377 62.0732 160.571 62.0136C160.761 61.9552 160.938 61.8012 161.073 61.6605C161.384 61.3339 161.574 60.9058 161.704 60.4797C161.99 59.5445 161.873 58.4224 160.932 57.9092C160.494 57.6701 159.181 57.6709 158.659 57.789C158.11 57.9133 157.488 59.1242 157.458 59.238C157.439 59.3084 157.448 59.3956 157.383 59.4426C157.241 59.5458 157.007 59.3667 156.902 59.2783C156.721 59.1257 156.592 58.9227 156.48 58.717C156.236 58.2688 156.04 57.7881 155.901 57.2974C155.794 56.9191 155.726 56.529 155.586 56.1603C155.447 55.7934 155.227 55.4656 154.886 55.2577C154.515 55.0317 154.09 54.9126 153.683 54.7705C153.279 54.6297 152.883 54.4577 152.57 54.1589C152.501 54.0932 152.434 54.0234 152.379 53.9461C152.335 53.885 152.292 53.7681 152.225 53.7294C152.122 53.6692 151.971 53.8258 151.881 53.8826C151.439 54.1632 151.071 54.5545 150.773 54.982C150.478 55.4072 150.235 55.8163 150.038 56.291C149.892 56.6431 149.801 57.0941 149.543 57.3826C149.429 57.5115 148.575 57.5894 148.299 57.4769C148.022 57.3644 147.713 57.0724 147.62 56.8893C147.525 56.702 147.502 56.4962 147.543 56.291C147.567 56.1704 147.615 56.0577 147.642 55.9391C147.665 55.8396 147.685 55.7455 147.733 55.6543C147.825 55.4814 147.982 55.3572 148.171 55.3053C147.974 55.1237 147.811 54.9065 147.698 54.6637C147.581 54.4115 147.482 54.1047 147.453 53.8279C147.431 53.603 147.466 53.3701 147.589 53.1768C147.718 52.9741 147.947 52.8419 148.145 52.7154C147.842 52.4789 147.584 52.1912 147.371 51.8727C146.957 51.2533 146.701 50.4725 146.912 49.7341Z" fill="#191847"/>
<path fill-rule="evenodd" clip-rule="evenodd" d="M185.647 117.933H147.171C144.215 117.933 141.818 120.33 141.818 123.286V154.067C141.818 157.024 144.215 159.42 147.171 159.42H185.647C188.603 159.42 191 157.024 191 154.067V123.286C191 120.33 188.603 117.933 185.647 117.933ZM180.294 127.301C181.033 127.301 181.632 127.9 181.632 128.64V148.714C181.632 149.453 181.033 150.052 180.294 150.052H152.524C151.785 150.052 151.186 149.453 151.186 148.714V128.64C151.186 127.9 151.785 127.301 152.524 127.301H180.294Z" fill="#C5CFD6"/>
<path fill-rule="evenodd" clip-rule="evenodd" d="M117.893 158.303C122.18 148.815 125.28 140.553 126.524 136.194C128.655 128.731 130.276 122.163 130.685 119.711C131.662 113.862 123.17 113.522 122.048 116.428C120.349 120.827 117.383 135.282 113.819 157.114L117.893 158.303ZM167.617 128.527C163.684 126.972 149.91 122.107 143.267 120.731C141.358 120.335 139.508 119.968 137.769 119.636C132.598 118.649 129.919 127.976 134.899 128.693C147.301 130.478 164.882 132.321 166.387 132.528C168.496 132.818 170.089 129.504 167.617 128.527Z" fill="#B28B67"/>
<path fill-rule="evenodd" clip-rule="evenodd" d="M134.595 117.069L155.87 106.239V103.881H153.34C132.758 109.126 122.24 112.487 121.787 113.964C121.783 113.98 121.778 113.996 121.774 114.012C121.764 114.026 121.753 114.039 121.743 114.053C117.665 119.663 115.222 147.05 114.42 149.101L122.236 150.267C125.226 139.18 134.792 131.456 134.538 118.177C134.606 117.788 134.624 117.418 134.595 117.069Z" fill="#1F28CF"/>
<path fill-rule="evenodd" clip-rule="evenodd" d="M154.102 123.501C156.049 123.111 157.841 122.763 159.375 122.494C169.283 120.756 172.172 115.453 170.464 103.881H152.209C149.227 104.738 133.73 111.237 125.689 114.693C120.367 116.981 122.045 125.228 125.059 127.375C125.075 127.506 125.129 127.596 125.226 127.636C141.437 134.355 154.262 130.829 158.546 131.956L160.528 125.705L154.102 123.501Z" fill="#2B44FF"/>
<path fill-rule="evenodd" clip-rule="evenodd" d="M166.273 127.533C167.335 127.635 168.089 127.794 168.535 128.012C169.077 128.276 169.824 128.753 170.776 129.441C170.469 130.07 167.712 135.723 162.504 146.401C160.832 146.132 160.169 145.493 160.516 144.487C160.863 143.481 161.143 142.641 161.356 141.967L161.686 132.37C161.693 132.185 161.848 132.041 162.032 132.047C162.035 132.047 162.039 132.047 162.042 132.047L163.518 132.14C164.357 131.461 164.911 130.847 165.179 130.297C165.396 129.851 165.517 129.146 165.54 128.183L165.54 128.183C165.549 127.814 165.855 127.522 166.225 127.53C166.241 127.531 166.257 127.532 166.273 127.533Z" fill="#E4E4E4"/>
<path fill-rule="evenodd" clip-rule="evenodd" d="M119.844 156.544C120.218 157.543 120.405 158.29 120.405 158.786C120.405 159.39 120.305 160.27 120.104 161.428C119.404 161.428 113.114 161.428 101.233 161.428C100.743 159.806 101.026 158.931 102.082 158.802C103.139 158.673 104.017 158.556 104.715 158.452L113.486 154.542C113.655 154.467 113.853 154.542 113.928 154.711C113.929 154.714 113.931 154.717 113.932 154.72L114.496 156.087C115.474 156.544 116.268 156.772 116.88 156.772C117.377 156.772 118.063 156.571 118.938 156.17L118.938 156.17C119.274 156.016 119.671 156.163 119.825 156.499C119.832 156.514 119.838 156.529 119.844 156.544Z" fill="#E4E4E4"/>
<path fill-rule="evenodd" clip-rule="evenodd" d="M136.45 98.569L126.972 107.815C124.214 108.991 121.955 110.29 120.194 111.711C119.797 112.189 119.366 113.105 121.23 112.695C123.094 112.285 125.072 111.938 125.423 112.544C125.773 113.15 124.741 114.079 125.388 114.872C125.82 115.401 127.271 113.719 129.742 109.826L139.598 104.016L136.45 98.569ZM178.518 99.8729L171.526 99.9004C175.843 113.837 178.174 121.231 178.518 122.084C179.292 124.002 177.654 126.924 176.953 128.495C179.235 129.516 178.992 125.734 181.87 127.074C184.498 128.296 186.496 130.511 189.532 128.638C189.905 128.407 190.314 127.54 189.326 126.863C186.864 125.175 183.317 122.221 182.837 121.248C182.184 119.922 180.744 112.797 178.518 99.8729Z" fill="#B28B67"/>
<path fill-rule="evenodd" clip-rule="evenodd" d="M158.649 70.535L155.755 70.0388C150.775 82.4816 142.078 93.7875 129.667 103.956L139.046 115.351C151.456 100.872 159.105 85.933 158.649 70.535Z" fill="#191847"/>
<path fill-rule="evenodd" clip-rule="evenodd" d="M171.26 106.892H145.498C151.467 92.3803 154.451 80.0525 154.451 69.9089L162.222 68.751C168.329 78.5736 170.054 90.6671 171.26 106.892Z" fill="#DDE3E9"/>
<path fill-rule="evenodd" clip-rule="evenodd" d="M162.386 68.7565C162.385 68.7547 162.384 68.7529 162.383 68.751H161.876C161.269 68.7719 160.345 68.8096 159.103 68.864L157.225 74.2303C157.026 80.773 155.866 93.9584 153.745 113.786H170.632C170.588 115.156 170.515 116.538 170.414 117.933H182.97C181.092 96.7427 174.233 80.3486 162.393 68.751L162.386 68.7565V68.7565Z" fill="#2F3676"/>
<path fill-rule="evenodd" clip-rule="evenodd" d="M169.517 96.264C169.037 104.801 167.833 110.685 165.907 113.918H170.628C170.835 107.777 170.465 101.892 169.517 96.264V96.264Z" fill="black" fill-opacity="0.1"/>
<path fill-rule="evenodd" clip-rule="evenodd" d="M166.874 103.547L158.547 99.6753V103.547H166.874Z" fill="white" fill-opacity="0.2"/>
</g>
<defs>
<filter id="filter0_d_547_845" x="0" y="0" width="310" height="284" filterUnits="userSpaceOnUse" color-interpolation-filters="sRGB">
<feFlood flood-opacity="0" result="BackgroundImageFix"/>
<feColorMatrix in="SourceAlpha" type="matrix" values="0 0 0 0 0 0 0 0 0 0 0 0 0 0 0 0 0 0 127 0" result="hardAlpha"/>
<feOffset dy="4"/>
<feGaussianBlur stdDeviation="2"/>
<feComposite in2="hardAlpha" operator="out"/>
<feColorMatrix type="matrix" values="0 0 0 0 0 0 0 0 0 0 0 0 0 0 0 0 0 0 0.25 0"/>
<feBlend mode="normal" in2="BackgroundImageFix" result="effect1_dropShadow_547_845"/>
<feBlend mode="normal" in="SourceGraphic" in2="effect1_dropShadow_547_845" result="shape"/>
</filter>
</defs>
</svg>
