<svg width="310" height="284" viewBox="0 0 310 284" fill="none" xmlns="http://www.w3.org/2000/svg">
<g filter="url(#filter0_d_547_870)">
<rect x="4" width="302" height="276" rx="16" fill="white" shape-rendering="crispEdges"/>
<path d="M102.324 191.71C102.278 191.252 102.083 190.896 101.739 190.642C101.394 190.388 100.926 190.261 100.335 190.261C99.9337 190.261 99.5947 190.318 99.3182 190.432C99.0417 190.542 98.8295 190.695 98.6818 190.892C98.5379 191.089 98.4659 191.312 98.4659 191.562C98.4583 191.771 98.5019 191.953 98.5966 192.108C98.6951 192.263 98.8295 192.398 99 192.511C99.1705 192.621 99.3674 192.718 99.5909 192.801C99.8144 192.881 100.053 192.949 100.307 193.006L101.352 193.256C101.86 193.369 102.326 193.521 102.75 193.71C103.174 193.9 103.542 194.133 103.852 194.409C104.163 194.686 104.403 195.011 104.574 195.386C104.748 195.761 104.837 196.191 104.841 196.676C104.837 197.388 104.655 198.006 104.295 198.528C103.939 199.047 103.424 199.451 102.75 199.739C102.08 200.023 101.271 200.165 100.324 200.165C99.3845 200.165 98.5663 200.021 97.8693 199.733C97.1761 199.445 96.6345 199.019 96.2443 198.455C95.858 197.886 95.6553 197.184 95.6364 196.347H98.017C98.0436 196.737 98.1553 197.062 98.3523 197.324C98.553 197.581 98.8201 197.777 99.1534 197.909C99.4905 198.038 99.8712 198.102 100.295 198.102C100.712 198.102 101.074 198.042 101.381 197.92C101.691 197.799 101.932 197.631 102.102 197.415C102.273 197.199 102.358 196.951 102.358 196.67C102.358 196.409 102.28 196.189 102.125 196.011C101.973 195.833 101.75 195.682 101.455 195.557C101.163 195.432 100.805 195.318 100.381 195.216L99.1136 194.898C98.1326 194.659 97.358 194.286 96.7898 193.778C96.2216 193.271 95.9394 192.587 95.9432 191.727C95.9394 191.023 96.1269 190.407 96.5057 189.881C96.8883 189.354 97.4129 188.943 98.0795 188.648C98.7462 188.352 99.5038 188.205 100.352 188.205C101.216 188.205 101.97 188.352 102.614 188.648C103.261 188.943 103.765 189.354 104.125 189.881C104.485 190.407 104.67 191.017 104.682 191.71H102.324ZM111.092 191.273V193.091H105.837V191.273H111.092ZM107.03 189.182H109.45V197.318C109.45 197.542 109.484 197.716 109.553 197.841C109.621 197.962 109.715 198.047 109.837 198.097C109.962 198.146 110.106 198.17 110.268 198.17C110.382 198.17 110.496 198.161 110.609 198.142C110.723 198.119 110.81 198.102 110.871 198.091L111.251 199.892C111.13 199.93 110.96 199.973 110.74 200.023C110.52 200.076 110.253 200.108 109.939 200.119C109.356 200.142 108.844 200.064 108.405 199.886C107.969 199.708 107.63 199.432 107.388 199.057C107.145 198.682 107.026 198.208 107.03 197.636V189.182ZM118.266 196.284V191.273H120.686V200H118.362V198.415H118.271C118.074 198.926 117.747 199.337 117.288 199.648C116.834 199.958 116.279 200.114 115.624 200.114C115.04 200.114 114.527 199.981 114.084 199.716C113.641 199.451 113.294 199.074 113.044 198.585C112.798 198.097 112.673 197.511 112.669 196.83V191.273H115.089V196.398C115.093 196.913 115.232 197.32 115.504 197.619C115.777 197.919 116.143 198.068 116.601 198.068C116.893 198.068 117.165 198.002 117.419 197.869C117.673 197.733 117.877 197.532 118.033 197.267C118.192 197.002 118.269 196.674 118.266 196.284ZM125.838 200.142C125.175 200.142 124.575 199.972 124.037 199.631C123.503 199.286 123.079 198.78 122.764 198.114C122.454 197.443 122.298 196.621 122.298 195.648C122.298 194.648 122.459 193.816 122.781 193.153C123.103 192.487 123.531 191.989 124.065 191.659C124.603 191.326 125.192 191.159 125.832 191.159C126.321 191.159 126.728 191.242 127.054 191.409C127.384 191.572 127.649 191.777 127.849 192.023C128.054 192.265 128.209 192.504 128.315 192.739H128.389V188.364H130.804V200H128.418V198.602H128.315C128.202 198.845 128.041 199.085 127.832 199.324C127.628 199.559 127.361 199.754 127.031 199.909C126.705 200.064 126.308 200.142 125.838 200.142ZM126.605 198.216C126.995 198.216 127.325 198.11 127.594 197.898C127.866 197.682 128.075 197.381 128.219 196.994C128.366 196.608 128.44 196.155 128.44 195.636C128.44 195.117 128.368 194.667 128.224 194.284C128.08 193.902 127.872 193.606 127.599 193.398C127.327 193.189 126.995 193.085 126.605 193.085C126.207 193.085 125.872 193.193 125.599 193.409C125.327 193.625 125.12 193.924 124.98 194.307C124.84 194.689 124.77 195.133 124.77 195.636C124.77 196.144 124.84 196.593 124.98 196.983C125.124 197.369 125.33 197.672 125.599 197.892C125.872 198.108 126.207 198.216 126.605 198.216ZM136.771 200.17C135.874 200.17 135.101 199.989 134.453 199.625C133.809 199.258 133.313 198.739 132.964 198.068C132.616 197.394 132.442 196.597 132.442 195.676C132.442 194.778 132.616 193.991 132.964 193.312C133.313 192.634 133.804 192.106 134.436 191.727C135.072 191.348 135.819 191.159 136.675 191.159C137.25 191.159 137.786 191.252 138.283 191.438C138.783 191.619 139.218 191.894 139.589 192.261C139.964 192.629 140.256 193.091 140.464 193.648C140.673 194.201 140.777 194.848 140.777 195.591V196.256H133.408V194.756H138.499C138.499 194.407 138.423 194.098 138.271 193.83C138.12 193.561 137.91 193.35 137.641 193.199C137.375 193.044 137.067 192.966 136.714 192.966C136.347 192.966 136.021 193.051 135.737 193.222C135.457 193.388 135.237 193.614 135.078 193.898C134.919 194.178 134.838 194.491 134.834 194.835V196.261C134.834 196.693 134.913 197.066 135.072 197.381C135.235 197.695 135.464 197.938 135.76 198.108C136.055 198.278 136.406 198.364 136.811 198.364C137.08 198.364 137.326 198.326 137.55 198.25C137.773 198.174 137.964 198.061 138.124 197.909C138.283 197.758 138.404 197.572 138.487 197.352L140.726 197.5C140.612 198.038 140.379 198.508 140.027 198.909C139.679 199.307 139.228 199.617 138.675 199.841C138.125 200.061 137.491 200.17 136.771 200.17ZM144.777 194.955V200H142.357V191.273H144.663V192.812H144.766C144.959 192.305 145.283 191.903 145.737 191.608C146.192 191.309 146.743 191.159 147.391 191.159C147.997 191.159 148.525 191.292 148.976 191.557C149.427 191.822 149.777 192.201 150.027 192.693C150.277 193.182 150.402 193.765 150.402 194.443V200H147.982V194.875C147.985 194.341 147.849 193.924 147.572 193.625C147.296 193.322 146.915 193.17 146.43 193.17C146.105 193.17 145.817 193.241 145.567 193.381C145.321 193.521 145.127 193.725 144.987 193.994C144.851 194.259 144.781 194.58 144.777 194.955ZM156.952 191.273V193.091H151.696V191.273H156.952ZM152.889 189.182H155.31V197.318C155.31 197.542 155.344 197.716 155.412 197.841C155.48 197.962 155.575 198.047 155.696 198.097C155.821 198.146 155.965 198.17 156.128 198.17C156.241 198.17 156.355 198.161 156.469 198.142C156.582 198.119 156.67 198.102 156.73 198.091L157.111 199.892C156.99 199.93 156.819 199.973 156.599 200.023C156.38 200.076 156.113 200.108 155.798 200.119C155.215 200.142 154.704 200.064 154.264 199.886C153.829 199.708 153.49 199.432 153.247 199.057C153.005 198.682 152.885 198.208 152.889 197.636V189.182ZM167.3 187.818L163.55 201.75H161.464L165.214 187.818H167.3ZM172.214 200V188.364H176.805C177.688 188.364 178.44 188.532 179.061 188.869C179.682 189.203 180.156 189.667 180.482 190.261C180.811 190.852 180.976 191.534 180.976 192.307C180.976 193.08 180.809 193.761 180.476 194.352C180.143 194.943 179.66 195.403 179.027 195.733C178.398 196.062 177.637 196.227 176.743 196.227H173.817V194.256H176.345C176.819 194.256 177.209 194.174 177.516 194.011C177.826 193.845 178.057 193.616 178.209 193.324C178.364 193.028 178.442 192.689 178.442 192.307C178.442 191.92 178.364 191.583 178.209 191.295C178.057 191.004 177.826 190.778 177.516 190.619C177.205 190.456 176.811 190.375 176.334 190.375H174.675V200H172.214ZM184.783 200.165C184.226 200.165 183.73 200.068 183.294 199.875C182.858 199.678 182.514 199.388 182.26 199.006C182.01 198.619 181.885 198.138 181.885 197.562C181.885 197.078 181.974 196.67 182.152 196.341C182.33 196.011 182.572 195.746 182.879 195.545C183.186 195.345 183.535 195.193 183.925 195.091C184.319 194.989 184.732 194.917 185.163 194.875C185.671 194.822 186.08 194.773 186.391 194.727C186.701 194.678 186.927 194.606 187.067 194.511C187.207 194.417 187.277 194.277 187.277 194.091V194.057C187.277 193.697 187.163 193.419 186.936 193.222C186.713 193.025 186.394 192.926 185.982 192.926C185.546 192.926 185.199 193.023 184.942 193.216C184.684 193.405 184.514 193.644 184.43 193.932L182.192 193.75C182.305 193.22 182.529 192.761 182.862 192.375C183.196 191.985 183.625 191.686 184.152 191.477C184.682 191.265 185.296 191.159 185.993 191.159C186.478 191.159 186.942 191.216 187.385 191.33C187.832 191.443 188.228 191.619 188.572 191.858C188.921 192.097 189.196 192.403 189.396 192.778C189.597 193.15 189.697 193.595 189.697 194.114V200H187.402V198.79H187.334C187.194 199.062 187.006 199.303 186.771 199.511C186.536 199.716 186.254 199.877 185.925 199.994C185.595 200.108 185.214 200.165 184.783 200.165ZM185.476 198.494C185.832 198.494 186.146 198.424 186.419 198.284C186.692 198.14 186.906 197.947 187.061 197.705C187.216 197.462 187.294 197.187 187.294 196.881V195.955C187.218 196.004 187.114 196.049 186.982 196.091C186.853 196.129 186.707 196.165 186.544 196.199C186.381 196.229 186.218 196.258 186.055 196.284C185.893 196.307 185.745 196.328 185.612 196.347C185.328 196.388 185.08 196.455 184.868 196.545C184.656 196.636 184.491 196.759 184.374 196.915C184.256 197.066 184.197 197.256 184.197 197.483C184.197 197.812 184.317 198.064 184.555 198.239C184.798 198.409 185.105 198.494 185.476 198.494ZM191.575 200V191.273H193.922V192.795H194.013C194.172 192.254 194.439 191.845 194.814 191.568C195.189 191.288 195.621 191.148 196.109 191.148C196.231 191.148 196.361 191.155 196.501 191.17C196.642 191.186 196.765 191.206 196.871 191.233V193.381C196.757 193.347 196.6 193.316 196.399 193.29C196.198 193.263 196.015 193.25 195.848 193.25C195.492 193.25 195.174 193.328 194.893 193.483C194.617 193.634 194.397 193.847 194.234 194.119C194.075 194.392 193.996 194.706 193.996 195.062V200H191.575ZM201.693 200.17C200.795 200.17 200.023 199.989 199.375 199.625C198.731 199.258 198.235 198.739 197.886 198.068C197.538 197.394 197.364 196.597 197.364 195.676C197.364 194.778 197.538 193.991 197.886 193.312C198.235 192.634 198.725 192.106 199.358 191.727C199.994 191.348 200.741 191.159 201.597 191.159C202.172 191.159 202.708 191.252 203.205 191.438C203.705 191.619 204.14 191.894 204.511 192.261C204.886 192.629 205.178 193.091 205.386 193.648C205.595 194.201 205.699 194.848 205.699 195.591V196.256H198.33V194.756H203.42C203.42 194.407 203.345 194.098 203.193 193.83C203.042 193.561 202.831 193.35 202.562 193.199C202.297 193.044 201.989 192.966 201.636 192.966C201.269 192.966 200.943 193.051 200.659 193.222C200.379 193.388 200.159 193.614 200 193.898C199.841 194.178 199.759 194.491 199.756 194.835V196.261C199.756 196.693 199.835 197.066 199.994 197.381C200.157 197.695 200.386 197.938 200.682 198.108C200.977 198.278 201.328 198.364 201.733 198.364C202.002 198.364 202.248 198.326 202.472 198.25C202.695 198.174 202.886 198.061 203.045 197.909C203.205 197.758 203.326 197.572 203.409 197.352L205.648 197.5C205.534 198.038 205.301 198.508 204.949 198.909C204.6 199.307 204.15 199.617 203.597 199.841C203.047 200.061 202.413 200.17 201.693 200.17ZM209.699 194.955V200H207.278V191.273H209.585V192.812H209.688C209.881 192.305 210.205 191.903 210.659 191.608C211.114 191.309 211.665 191.159 212.312 191.159C212.919 191.159 213.447 191.292 213.898 191.557C214.348 191.822 214.699 192.201 214.949 192.693C215.199 193.182 215.324 193.765 215.324 194.443V200H212.903V194.875C212.907 194.341 212.771 193.924 212.494 193.625C212.218 193.322 211.837 193.17 211.352 193.17C211.027 193.17 210.739 193.241 210.489 193.381C210.242 193.521 210.049 193.725 209.909 193.994C209.773 194.259 209.703 194.58 209.699 194.955ZM221.874 191.273V193.091H216.618V191.273H221.874ZM217.811 189.182H220.232V197.318C220.232 197.542 220.266 197.716 220.334 197.841C220.402 197.962 220.497 198.047 220.618 198.097C220.743 198.146 220.887 198.17 221.05 198.17C221.163 198.17 221.277 198.161 221.391 198.142C221.504 198.119 221.591 198.102 221.652 198.091L222.033 199.892C221.911 199.93 221.741 199.973 221.521 200.023C221.302 200.076 221.035 200.108 220.72 200.119C220.137 200.142 219.625 200.064 219.186 199.886C218.75 199.708 218.411 199.432 218.169 199.057C217.927 198.682 217.807 198.208 217.811 197.636V189.182Z" fill="#00164F"/>
<path fill-rule="evenodd" clip-rule="evenodd" d="M173.466 63.2273C175.008 61.4177 176.051 59.2 175.877 56.7149C175.375 49.5549 165.408 51.13 163.469 54.7438C161.53 58.3576 161.76 67.5242 164.266 68.17C165.265 68.4276 167.394 67.7967 169.561 66.4908L168.201 76.1116H176.23L173.466 63.2273Z" fill="#B28B67"/>
<path fill-rule="evenodd" clip-rule="evenodd" d="M159.912 49.7341C160.078 49.1496 160.525 48.6492 161.128 48.5007C161.274 48.4647 161.425 48.4502 161.575 48.4562C161.629 48.4584 161.644 48.4739 161.67 48.4362C161.688 48.4082 161.689 48.3399 161.696 48.307C161.72 48.2048 161.75 48.1039 161.787 48.0055C161.913 47.6702 162.125 47.3734 162.381 47.1234C162.859 46.6556 163.504 46.3328 164.175 46.2744C164.542 46.2425 164.907 46.3021 165.254 46.4216C165.434 46.4834 165.608 46.5604 165.778 46.6455C165.829 46.6711 165.995 46.7966 166.046 46.7885C166.103 46.7795 166.216 46.6388 166.262 46.6034C166.832 46.1667 167.535 45.995 168.244 46.0001C169.044 46.0061 169.815 46.0461 170.482 46.534C170.623 46.6373 170.758 46.7504 170.886 46.8694C170.953 46.9321 171.019 46.9972 171.081 47.0649C171.119 47.1058 171.155 47.1476 171.191 47.1905C171.25 47.2633 171.241 47.2872 171.325 47.2364C171.646 47.0413 172.018 46.95 172.393 46.9961C172.616 47.0234 172.832 47.0903 173.038 47.1783C173.108 47.2082 173.27 47.3277 173.345 47.3288C173.419 47.33 173.578 47.2192 173.655 47.1911C174.067 47.039 174.511 47.0015 174.944 47.0718C175.39 47.1443 175.829 47.3225 176.207 47.5687C176.389 47.6872 176.548 47.8184 176.676 47.9946C176.731 48.0706 176.781 48.151 176.843 48.2216C176.88 48.2628 176.952 48.3052 176.972 48.3575C176.96 48.3262 177.46 48.1333 177.507 48.121C177.759 48.0553 178.015 48.0687 178.261 48.1497C178.724 48.3021 179.122 48.6438 179.449 48.9941C179.618 49.1741 179.765 49.373 179.89 49.5849C179.949 49.6864 180.004 49.7908 180.054 49.8974C180.078 49.9491 180.094 50.0137 180.126 50.0603C180.168 50.1202 180.195 50.1214 180.27 50.1475C180.649 50.2803 180.994 50.505 181.257 50.8086C181.523 51.1158 181.696 51.4941 181.768 51.8925C181.773 51.9159 181.775 52.0132 181.789 52.0259C181.808 52.0434 181.884 52.0356 181.913 52.039C182.013 52.0507 182.112 52.0682 182.21 52.0913C182.39 52.134 182.565 52.1968 182.731 52.2789C183.378 52.5991 183.841 53.1993 184.068 53.8746C184.305 54.5834 184.301 55.3954 184.017 56.091C183.971 56.2033 183.917 56.3124 183.852 56.4155C183.813 56.4789 183.8 56.479 183.826 56.5455C183.854 56.6194 183.907 56.6912 183.94 56.7634C184.051 56.9991 184.128 57.2491 184.177 57.5044C184.257 57.9232 184.296 58.3633 184.217 58.7853C184.181 58.9813 184.117 59.1728 184.02 59.3473C183.97 59.4363 183.912 59.5207 183.846 59.5988C183.812 59.6393 183.776 59.678 183.738 59.7151C183.717 59.7363 183.688 59.7549 183.67 59.7785C183.625 59.8362 183.615 59.7888 183.639 59.8735C183.671 59.992 183.744 60.1088 183.789 60.2241C183.836 60.3429 183.877 60.4633 183.916 60.5849C183.993 60.8311 184.059 61.0818 184.1 61.3368C184.179 61.8263 184.165 62.348 183.933 62.7973C183.834 62.9895 183.692 63.158 183.52 63.2892C183.436 63.3534 183.344 63.4087 183.248 63.4541C183.199 63.4774 183.136 63.4875 183.114 63.5351C183.09 63.5863 183.126 63.6879 183.134 63.7452C183.205 64.2431 183.241 64.7659 183.093 65.2539C182.956 65.7033 182.656 66.1001 182.266 66.3628C181.51 66.8725 180.491 66.8437 179.697 66.4357C179.49 66.3294 179.296 66.1973 179.123 66.0416C178.683 66.6339 177.778 66.6152 177.135 66.4464C176.334 66.2361 175.691 65.679 175.32 64.947C174.814 65.5636 173.751 65.3635 173.399 64.6946C173.313 64.5309 173.262 64.3504 173.237 64.1679C173.224 64.0718 173.233 63.975 173.223 63.8797C173.21 63.7584 173.129 63.6404 173.082 63.523C172.992 63.2945 172.935 63.0584 172.933 62.812C172.932 62.6833 172.948 62.5579 172.96 62.4302C172.971 62.3153 172.939 62.2082 172.921 62.0948C173.127 62.1286 173.377 62.0732 173.571 62.0136C173.761 61.9552 173.938 61.8012 174.073 61.6605C174.384 61.3339 174.574 60.9058 174.704 60.4797C174.99 59.5445 174.873 58.4224 173.932 57.9092C173.494 57.6701 172.181 57.6709 171.659 57.789C171.11 57.9133 170.488 59.1242 170.458 59.238C170.439 59.3084 170.448 59.3956 170.383 59.4426C170.241 59.5458 170.007 59.3667 169.902 59.2783C169.721 59.1257 169.592 58.9227 169.48 58.717C169.236 58.2688 169.04 57.7881 168.901 57.2974C168.794 56.9191 168.726 56.529 168.586 56.1603C168.447 55.7934 168.227 55.4656 167.886 55.2577C167.515 55.0317 167.09 54.9126 166.683 54.7705C166.279 54.6297 165.883 54.4577 165.57 54.1589C165.501 54.0932 165.434 54.0234 165.379 53.9461C165.335 53.885 165.292 53.7681 165.225 53.7294C165.122 53.6692 164.971 53.8258 164.881 53.8826C164.439 54.1632 164.071 54.5545 163.773 54.982C163.478 55.4072 163.235 55.8163 163.038 56.291C162.892 56.6431 162.801 57.0941 162.543 57.3826C162.429 57.5115 161.575 57.5894 161.299 57.4769C161.022 57.3644 160.713 57.0724 160.62 56.8893C160.525 56.702 160.502 56.4962 160.543 56.291C160.567 56.1704 160.615 56.0577 160.642 55.9391C160.665 55.8396 160.685 55.7455 160.733 55.6543C160.825 55.4814 160.982 55.3572 161.171 55.3053C160.974 55.1237 160.811 54.9065 160.698 54.6637C160.581 54.4115 160.482 54.1047 160.453 53.8279C160.431 53.603 160.466 53.3701 160.589 53.1768C160.718 52.9741 160.947 52.8419 161.145 52.7154C160.842 52.4789 160.584 52.1912 160.371 51.8727C159.957 51.2533 159.701 50.4725 159.912 49.7341Z" fill="#191847"/>
<path fill-rule="evenodd" clip-rule="evenodd" d="M198.647 117.933H160.171C157.215 117.933 154.818 120.33 154.818 123.286V154.067C154.818 157.024 157.215 159.42 160.171 159.42H198.647C201.603 159.42 204 157.024 204 154.067V123.286C204 120.33 201.603 117.933 198.647 117.933ZM193.294 127.301C194.033 127.301 194.632 127.9 194.632 128.64V148.714C194.632 149.453 194.033 150.052 193.294 150.052H165.524C164.785 150.052 164.186 149.453 164.186 148.714V128.64C164.186 127.9 164.785 127.301 165.524 127.301H193.294Z" fill="#C5CFD6"/>
<path fill-rule="evenodd" clip-rule="evenodd" d="M130.893 158.303C135.18 148.815 138.28 140.553 139.524 136.194C141.655 128.731 143.276 122.163 143.685 119.711C144.662 113.862 136.17 113.522 135.048 116.428C133.349 120.827 130.383 135.282 126.819 157.114L130.893 158.303ZM180.617 128.527C176.684 126.972 162.91 122.107 156.267 120.731C154.358 120.335 152.508 119.968 150.769 119.636C145.598 118.649 142.919 127.976 147.899 128.693C160.301 130.478 177.882 132.321 179.387 132.528C181.496 132.818 183.089 129.504 180.617 128.527Z" fill="#B28B67"/>
<path fill-rule="evenodd" clip-rule="evenodd" d="M147.595 117.069L168.87 106.239V103.881H166.34C145.758 109.126 135.24 112.487 134.787 113.964C134.783 113.98 134.778 113.996 134.774 114.012C134.764 114.026 134.753 114.039 134.743 114.053C130.665 119.663 128.222 147.05 127.42 149.101L135.236 150.267C138.226 139.18 147.792 131.456 147.538 118.177C147.606 117.788 147.624 117.418 147.595 117.069Z" fill="#1F28CF"/>
<path fill-rule="evenodd" clip-rule="evenodd" d="M167.102 123.501C169.049 123.111 170.841 122.763 172.375 122.494C182.283 120.756 185.172 115.453 183.464 103.881H165.209C162.227 104.738 146.73 111.237 138.689 114.693C133.367 116.981 135.045 125.228 138.059 127.375C138.075 127.506 138.129 127.596 138.226 127.636C154.437 134.355 167.262 130.829 171.546 131.956L173.528 125.705L167.102 123.501Z" fill="#2B44FF"/>
<path fill-rule="evenodd" clip-rule="evenodd" d="M179.273 127.533C180.335 127.635 181.089 127.794 181.535 128.012C182.077 128.276 182.824 128.753 183.776 129.441C183.469 130.07 180.712 135.723 175.504 146.401C173.832 146.132 173.169 145.493 173.516 144.487C173.863 143.481 174.143 142.641 174.356 141.967L174.686 132.37C174.693 132.185 174.848 132.041 175.032 132.047C175.035 132.047 175.039 132.047 175.042 132.047L176.518 132.14C177.357 131.461 177.911 130.847 178.179 130.297C178.396 129.851 178.517 129.146 178.54 128.183L178.54 128.183C178.549 127.814 178.855 127.522 179.225 127.53C179.241 127.531 179.257 127.532 179.273 127.533Z" fill="#E4E4E4"/>
<path fill-rule="evenodd" clip-rule="evenodd" d="M132.844 156.544C133.218 157.543 133.405 158.29 133.405 158.786C133.405 159.39 133.305 160.27 133.104 161.428C132.404 161.428 126.114 161.428 114.233 161.428C113.743 159.806 114.026 158.931 115.082 158.802C116.139 158.673 117.017 158.556 117.715 158.452L126.486 154.542C126.655 154.467 126.853 154.542 126.928 154.711C126.929 154.714 126.931 154.717 126.932 154.72L127.496 156.087C128.474 156.544 129.268 156.772 129.88 156.772C130.377 156.772 131.063 156.571 131.938 156.17L131.938 156.17C132.274 156.016 132.671 156.163 132.825 156.499C132.832 156.514 132.838 156.529 132.844 156.544Z" fill="#E4E4E4"/>
<path fill-rule="evenodd" clip-rule="evenodd" d="M149.45 98.569L139.972 107.815C137.214 108.991 134.955 110.29 133.194 111.711C132.797 112.189 132.366 113.105 134.23 112.695C136.094 112.285 138.072 111.938 138.423 112.544C138.773 113.15 137.741 114.079 138.388 114.872C138.82 115.401 140.271 113.719 142.742 109.826L152.598 104.016L149.45 98.569ZM191.518 99.8729L184.526 99.9004C188.843 113.837 191.174 121.231 191.518 122.084C192.292 124.002 190.654 126.924 189.953 128.495C192.235 129.516 191.992 125.734 194.87 127.074C197.498 128.296 199.496 130.511 202.532 128.638C202.905 128.407 203.314 127.54 202.326 126.863C199.864 125.175 196.317 122.221 195.837 121.248C195.184 119.922 193.744 112.797 191.518 99.8729Z" fill="#B28B67"/>
<path fill-rule="evenodd" clip-rule="evenodd" d="M171.649 70.535L168.755 70.0388C163.775 82.4816 155.078 93.7875 142.667 103.956L152.046 115.351C164.456 100.872 172.105 85.933 171.649 70.535Z" fill="#191847"/>
<path fill-rule="evenodd" clip-rule="evenodd" d="M184.26 106.892H158.498C164.467 92.3803 167.451 80.0525 167.451 69.9089L175.222 68.751C181.329 78.5736 183.054 90.6671 184.26 106.892Z" fill="#DDE3E9"/>
<path fill-rule="evenodd" clip-rule="evenodd" d="M175.386 68.7565C175.385 68.7547 175.384 68.7529 175.383 68.751H174.876C174.269 68.7719 173.345 68.8096 172.103 68.864L170.225 74.2303C170.026 80.773 168.866 93.9584 166.745 113.786H183.632C183.588 115.156 183.515 116.538 183.414 117.933H195.97C194.092 96.7427 187.233 80.3486 175.393 68.751L175.386 68.7565V68.7565Z" fill="#2F3676"/>
<path fill-rule="evenodd" clip-rule="evenodd" d="M182.517 96.264C182.037 104.801 180.833 110.685 178.907 113.918H183.628C183.835 107.777 183.465 101.892 182.517 96.264V96.264Z" fill="black" fill-opacity="0.1"/>
<path fill-rule="evenodd" clip-rule="evenodd" d="M179.874 103.547L171.547 99.6753V103.547H179.874Z" fill="white" fill-opacity="0.2"/>
</g>
<defs>
<filter id="filter0_d_547_870" x="0" y="0" width="310" height="284" filterUnits="userSpaceOnUse" color-interpolation-filters="sRGB">
<feFlood flood-opacity="0" result="BackgroundImageFix"/>
<feColorMatrix in="SourceAlpha" type="matrix" values="0 0 0 0 0 0 0 0 0 0 0 0 0 0 0 0 0 0 127 0" result="hardAlpha"/>
<feOffset dy="4"/>
<feGaussianBlur stdDeviation="2"/>
<feComposite in2="hardAlpha" operator="out"/>
<feColorMatrix type="matrix" values="0 0 0 0 0 0 0 0 0 0 0 0 0 0 0 0 0 0 0.25 0"/>
<feBlend mode="normal" in2="BackgroundImageFix" result="effect1_dropShadow_547_870"/>
<feBlend mode="normal" in="SourceGraphic" in2="effect1_dropShadow_547_870" result="shape"/>
</filter>
</defs>
</svg>
